Courier10PitchBT-BoldItalic.sfdir
StartChar: exclam
Encoding: 33 33 1
Width: 602
Flags: W
HStem: -13 139<225 271.5> 164 20 575 20<333.5 372.5>
VStem: 171 155<35.5 76> 233 175
LayerCount: 2
Fore
SplineSet
234 215 m 2x68
 279 519 l 2
 287 571 311 595 356 595 c 0
 389 595 408 577 408 549 c 0
 408 545 406 532 401 514 c 2
 325 214 l 2
 316 180 307 164 275 164 c 0
 245 164 233 176 233 200 c 0
 233 205 233 210 234 215 c 2x68
171 56 m 0x90
 171 96 201 126 248 126 c 0
 296 126 326 97 326 56 c 0
 326 15 295 -13 248 -13 c 0
 202 -13 171 15 171 56 c 0x90
EndSplineSet
EndChar
StartChar: quotedbl
Encoding: 34 34 2
Width: 602
Flags: MW
HStem: 324 20 559 20<194 262 262 270 387 456 456 464>
VStem: 170 117<547 553 552 553 547 561.5> 363 117<547 553 552 553 547 561.5>
LayerCount: 2
Fore
SplineSet
212 324 m 2
 192 324 188 334 186 356 c 2
 170 547 l 2
 170 549 170 551 170 553 c 0
 170 570 178 579 194 579 c 2
 262 579 l 2
 278 579 287 570 287 553 c 0
 287 551 287 549 287 547 c 2
 270 356 l 2
 268 334 264 324 244 324 c 2
 212 324 l 2
406 324 m 2
 386 324 381 334 379 356 c 2
 363 547 l 2
 363 549 363 551 363 553 c 0
 363 570 371 579 387 579 c 2
 456 579 l 2
 472 579 480 570 480 553 c 0
 480 551 480 549 480 547 c 2
 464 356 l 2
 462 334 457 324 437 324 c 2
 406 324 l 2
EndSplineSet
EndChar
StartChar: numbersign
Encoding: 35 35 3
Width: 602
Flags: MW
HStem: -58 20 178 73<120.5 185 131 181> 363 74<120.5 196 131 191 279 335 422 470> 663 20<235.5 261 378.5 404>
VStem: 99 403<203 226 202 227 388 412>
LayerCount: 2
Fore
SplineSet
207 641 m 2
 208 668 223 683 248 683 c 0
 274 683 290 668 290 642 c 0
 290 640 290 639 290 637 c 2
 279 437 l 1
 339 437 l 1
 350 641 l 2
 351 668 366 683 391 683 c 0
 417 683 433 668 433 642 c 0
 433 640 433 639 433 637 c 2
 422 437 l 1
 470 437 l 2
 491 437 502 424 502 400 c 0
 502 376 491 363 470 363 c 2
 418 363 l 1
 411 251 l 1
 470 251 l 2
 491 251 502 238 502 214 c 0
 502 190 491 177 470 177 c 2
 407 177 l 1
 397 -16 l 2
 396 -43 380 -58 356 -58 c 0
 330 -58 314 -41 314 -15 c 0
 314 -14 314 -12 314 -11 c 2
 325 177 l 1
 264 177 l 1
 254 -16 l 2
 253 -43 238 -58 213 -58 c 0
 187 -58 172 -40 172 -14 c 0
 172 -13 172 -12 172 -11 c 2
 181 178 l 1
 131 178 l 2
 110 178 99 191 99 215 c 0
 99 239 110 251 131 251 c 2
 185 251 l 1
 191 363 l 1
 131 363 l 2
 110 363 99 376 99 400 c 0
 99 424 110 437 131 437 c 2
 196 437 l 1
 207 641 l 2
269 251 m 1
 329 251 l 1
 335 363 l 1
 274 363 l 1
 269 251 l 1
EndSplineSet
EndChar
StartChar: dollar
Encoding: 36 36 4
Width: 602
Flags: MW
HStem: -123 20 29 94<285 285> 515 80<339 344 339 376.5> 652 20<392 416.5>
VStem: 142 127<429.5 461 429.5 470.5> 373 124<179 211>
LayerCount: 2
Fore
SplineSet
203 34 m 1
 177 38 156 47 137 64 c 1
 125 49 113 41 98 41 c 0
 77 41 62 55 62 78 c 0
 62 82 63 87 64 92 c 2
 83 179 l 2
 89 207 104 221 130 221 c 0
 165 221 165 200 177 172 c 0
 193 136 222 123 278 123 c 0
 339 123 373 158 373 200 c 0
 373 222 357 240 325 255 c 2
 222 301 l 2
 171 324 142 368 142 420 c 0
 142 521 218 595 339 595 c 0
 341 595 342 595 344 595 c 2
 357 636 l 2
 365 661 380 672 404 672 c 0
 429 672 443 663 443 651 c 0
 443 646 443 639 440 631 c 2
 427 593 l 1
 448 587 467 580 485 571 c 1
 498 584 507 587 522 587 c 0
 547 587 559 578 559 563 c 0
 559 561 559 558 558 556 c 2
 543 473 l 2
 537 442 532 429 503 429 c 0
 460 429 467 452 445 480 c 0
 427 503 397 515 356 515 c 0
 302 515 269 481 269 441 c 0
 269 418 282 400 306 390 c 2
 403 348 l 2
 461 323 497 274 497 218 c 0
 497 113 420 34 285 29 c 1
 257 -80 l 2
 250 -108 233 -123 207 -123 c 0
 183 -123 169 -113 169 -95 c 0
 169 -91 170 -87 171 -83 c 2
 203 34 l 1
EndSplineSet
EndChar
StartChar: percent
Encoding: 37 37 5
Width: 602
Flags: W
HStem: -16 74<337 377 337 399> 176 74<337 377> 366 74<225 265 225 286> 559 73<225 265>
VStem: 101 78<481.5 516.5 481.5 536.5> 213 78<99.5 134.5 99.5 154.5> 310 77<481.5 516> 423 77<99.5 134>
LayerCount: 2
Fore
SplineSet
124 272 m 2
 451 402 l 2
 456 404 461 405 465 405 c 0
 483 405 495 391 495 372 c 0
 495 361 487 350 475 345 c 2
 147 214 l 2
 142 212 137 211 133 211 c 0
 115 211 104 227 104 246 c 0
 104 257 111 267 124 272 c 2
213 117 m 0xff
 213 192 273 250 357 250 c 0
 441 250 500 192 500 117 c 0
 500 41 441 -16 357 -16 c 0
 272 -16 213 42 213 117 c 0xff
423 117 m 0
 423 151 397 176 357 176 c 0
 317 176 291 152 291 117 c 0
 291 82 317 58 357 58 c 0
 397 58 423 82 423 117 c 0
310 499 m 0
 310 533 285 559 245 559 c 0
 205 559 179 534 179 499 c 0
 179 464 205 440 245 440 c 0
 285 440 310 464 310 499 c 0
101 499 m 0
 101 574 160 632 244 632 c 0
 328 632 387 574 387 499 c 0
 387 423 328 366 244 366 c 0
 160 366 101 424 101 499 c 0
EndSplineSet
EndChar
StartChar: ampersand
Encoding: 38 38 6
Width: 602
Flags: W
HStem: -14 101<134 229> 0 88<359.5 449 369 449> 223 88 463 99<311 339.5>
VStem: 39 120<130.5 153.5> 158 119<411 430.5 411 451>
LayerCount: 2
Fore
SplineSet
326 39 m 1x74
 273 4 225 -14 175 -14 c 0
 93 -14 39 39 39 114 c 0x88
 39 193 85 255 181 313 c 1
 173 335 l 2
 163 362 158 386 158 408 c 0
 158 494 227 562 331 562 c 0
 369 562 397 554 425 531 c 1
 432 532 439 534 445 534 c 0
 465 534 476 522 476 502 c 0
 476 466 436 426 408 426 c 0
 377 426 355 463 324 463 c 0
 298 463 277 444 277 417 c 0
 277 405 281 390 289 375 c 2
 375 209 l 1
 410 269 410 311 448 311 c 2
 503 311 l 2
 523 311 537 298 537 274 c 0
 537 236 517 224 470 223 c 1
 458 185 441 153 418 125 c 1
 439 88 l 1
 449 88 l 2
 469 88 483 75 483 52 c 0
 483 19 463 0 424 0 c 2
 369 0 l 2
 350 0 343 0 336 16 c 2
 326 39 l 1x74
294 118 m 1x88
 228 238 l 1
 182 213 159 181 159 148 c 0
 159 113 185 87 219 87 c 0
 239 87 263 99 294 118 c 1x88
EndSplineSet
EndChar
StartChar: quotesingle
Encoding: 169 39 103
Width: 602
Flags: MW
HStem: 324 20 559 20<266 335 335 343>
VStem: 243 116<547 553 547 554 552.5 553 547 562>
LayerCount: 2
Fore
SplineSet
285 324 m 2
 265 324 260 334 258 356 c 2
 243 547 l 2
 243 549 243 551 243 554 c 0
 243 570 250 579 266 579 c 2
 335 579 l 2
 351 579 359 570 359 553 c 0
 359 551 359 549 359 547 c 2
 343 356 l 2
 341 334 337 324 317 324 c 2
 285 324 l 2
EndSplineSet
EndChar
StartChar: parenleft
Encoding: 40 40 8
Width: 602
Flags: MW
HStem: -194 20 575 20<486 506>
VStem: 182 122<19 128 19 160>
LayerCount: 2
Fore
SplineSet
182 92 m 0
 182 228 232 351 332 465 c 0
 411 555 473 595 499 595 c 0
 513 595 524 586 524 577 c 0
 524 549 454 491 394 387 c 0
 334 284 304 178 304 78 c 0
 304 -40 360 -118 360 -167 c 0
 360 -185 350 -194 331 -194 c 0
 285 -194 182 -86 182 92 c 0
EndSplineSet
EndChar
StartChar: parenright
Encoding: 41 41 9
Width: 602
Flags: MW
HStem: -195 20 575 20<258.5 291>
VStem: 295 122<273 382>
LayerCount: 2
Fore
SplineSet
417 309 m 0
 417 173 367 50 267 -64 c 0
 188 -154 126 -195 100 -195 c 0
 86 -195 75 -185 75 -176 c 0
 75 -148 146 -90 206 14 c 0
 266 117 295 223 295 323 c 0
 295 441 239 519 239 568 c 0
 239 586 249 595 268 595 c 0
 314 595 417 487 417 309 c 0
EndSplineSet
EndChar
StartChar: asterisk
Encoding: 42 42 10
Width: 602
Flags: MW
HStem: 235 20 596 20
VStem: 102 398<438.5 441>
LayerCount: 2
Fore
SplineSet
456 516 m 2
 461 518 465 519 468 519 c 0
 475 519 479 513 483 499 c 2
 496 458 l 2
 499 449 500 443 500 441 c 0
 500 436 494 431 484 429 c 2
 353 401 l 1
 443 300 l 2
 448 295 450 290 450 285 c 0
 450 281 444 276 434 269 c 2
 400 244 l 2
 391 237 384 235 382 235 c 0
 378 235 373 239 369 246 c 2
 301 362 l 1
 233 247 l 2
 228 239 223 235 219 235 c 0
 217 235 210 238 201 245 c 2
 167 270 l 2
 157 277 152 283 152 286 c 0
 152 291 154 295 159 300 c 2
 250 400 l 1
 118 429 l 2
 108 431 102 435 102 440 c 0
 102 442 103 449 106 459 c 2
 120 499 l 2
 125 513 127 519 134 519 c 0
 137 519 141 518 146 516 c 2
 268 460 l 1
 254 596 l 2
 254 598 254 600 254 601 c 0
 254 614 261 616 279 616 c 2
 322 616 l 2
 340 616 346 614 346 602 c 0
 346 600 346 598 346 596 c 2
 333 462 l 1
 456 516 l 2
EndSplineSet
EndChar
StartChar: plus
Encoding: 43 43 11
Width: 602
Flags: W
HStem: 43 20 257 102<74 250 90 250 90 351 351 512> 552 20<285 315.5>
VStem: 36 530<293 323 292.5 323.5> 250 101<97 257 359 519>
LayerCount: 2
Fore
SplineSet
351 97 m 2xe8
 351 65 331 43 301 43 c 0
 270 43 250 65 250 97 c 2
 250 257 l 1xe8
 90 257 l 2
 58 257 36 278 36 308 c 0x50
 36 339 58 359 90 359 c 2
 250 359 l 1
 250 519 l 2
 250 551 270 572 300 572 c 0
 331 572 351 551 351 519 c 2
 351 359 l 1xe8
 512 359 l 2
 544 359 566 338 566 308 c 0x50
 566 277 544 257 512 257 c 2
 351 257 l 1
 351 97 l 2xe8
EndSplineSet
EndChar
StartChar: comma
Encoding: 44 44 12
Width: 602
Flags: MW
HStem: -164 20 147 20<276 381 381 385>
VStem: 116 279
LayerCount: 2
Fore
SplineSet
125 -107 m 2
 241 145 l 2
 249 162 256 167 276 167 c 2
 381 167 l 2
 389 167 395 162 395 154 c 0
 395 151 395 149 393 146 c 2
 195 -148 l 2
 188 -159 180 -164 169 -164 c 0
 165 -164 161 -163 157 -161 c 2
 125 -144 l 2
 120 -141 116 -135 116 -130 c 0
 116 -128 119 -120 125 -107 c 2
EndSplineSet
EndChar
StartChar: hyphen
Encoding: 45 45 13
Width: 602
Flags: MW
HStem: 170 111<78 504 97 491>
VStem: 62 464<186 266>
LayerCount: 2
Fore
SplineSet
84 170 m 2
 72 170 62 180 62 192 c 0
 62 194 63 195 63 197 c 2
 76 258 l 2
 79 274 85 281 97 281 c 2
 504 281 l 2
 516 281 526 272 526 260 c 0
 526 258 525 257 525 255 c 2
 512 194 l 2
 509 178 503 170 491 170 c 2
 84 170 l 2
EndSplineSet
EndChar
StartChar: period
Encoding: 46 46 14
Width: 602
Flags: MW
HStem: -12 174<250 308.5>
VStem: 183 193<49.5 100.5>
LayerCount: 2
Fore
SplineSet
183 75 m 0
 183 126 221 162 279 162 c 0
 338 162 376 126 376 75 c 0
 376 24 338 -12 279 -12 c 0
 221 -12 183 24 183 75 c 0
EndSplineSet
EndChar
StartChar: slash
Encoding: 47 47 15
Width: 602
Flags: MW
HStem: -124 20 684 20<513.5 536>
VStem: 9 571
LayerCount: 2
Fore
SplineSet
121 -76 m 2
 102 -106 87 -124 64 -124 c 0
 41 -124 9 -99 9 -77 c 0
 9 -54 19 -39 32 -19 c 2
 468 656 l 2
 487 686 502 704 525 704 c 0
 547 704 580 681 580 658 c 0
 580 635 570 619 557 599 c 2
 121 -76 l 2
EndSplineSet
EndChar
StartChar: zero
Encoding: 48 48 16
Width: 602
Flags: MW
HStem: -14 102<233 281 233 287> 533 100<320 368>
VStem: 43 129<175.5 243.5 175.5 250.5> 430 129<371.5 446>
LayerCount: 2
Fore
SplineSet
43 202 m 0
 43 299 79 416 136 501 c 0
 195 589 270 633 361 633 c 0
 488 633 559 556 559 419 c 0
 559 323 524 207 466 118 c 0
 408 30 333 -14 241 -14 c 0
 114 -14 43 64 43 202 c 0
343 533 m 0
 297 533 257 495 220 417 c 0
 189 350 172 270 172 217 c 0
 172 134 208 88 258 88 c 0
 304 88 344 126 382 203 c 0
 414 267 430 338 430 405 c 0
 430 487 393 533 343 533 c 0
EndSplineSet
EndChar
StartChar: one
Encoding: 49 49 17
Width: 602
Flags: MW
HStem: 0 102<83.5 211 114 211 328 390> 516 117<299 415>
VStem: 49 406<37 65.5>
LayerCount: 2
Fore
SplineSet
211 102 m 1
 299 516 l 1
 226 500 l 2
 221 499 216 498 212 498 c 0
 188 498 175 515 175 541 c 0
 175 566 189 583 209 588 c 2
 393 631 l 2
 398 632 402 633 406 633 c 0
 424 633 433 623 433 608 c 0
 433 606 433 603 432 600 c 2
 328 102 l 1
 402 102 l 2
 439 102 455 92 455 57 c 0
 455 17 434 0 390 0 c 2
 102 0 l 2
 65 0 49 10 49 45 c 0
 49 86 70 102 114 102 c 2
 211 102 l 1
EndSplineSet
EndChar
StartChar: two
Encoding: 50 50 18
Width: 602
Flags: MW
HStem: 0 102<214 373 214 414> 527 104<314.5 352>
VStem: 399 128<435 481>
LayerCount: 2
Fore
SplineSet
214 102 m 1
 373 102 l 1
 383 145 399 162 434 162 c 0
 466 162 479 151 479 126 c 0
 479 120 479 113 477 105 c 2
 463 37 l 2
 457 8 445 0 414 0 c 2
 72 0 l 2
 33 0 14 8 14 38 c 0
 14 71 49 97 106 147 c 2
 296 313 l 2
 359 369 399 409 399 461 c 0
 399 501 374 527 330 527 c 0
 299 527 269 518 250 504 c 0
 223 485 208 439 174 439 c 0
 148 439 133 454 133 481 c 0
 133 566 229 631 351 631 c 0
 461 631 527 569 527 474 c 0
 527 378 458 306 335 203 c 2
 214 102 l 1
EndSplineSet
EndChar
StartChar: three
Encoding: 51 51 19
Width: 602
Flags: W
HStem: -17 103<194.5 251.5 194.5 288> 536 98<296.5 339.5>
VStem: 344 124<169.5 228.5> 385 122<457.5 493>
LayerCount: 2
Fore
SplineSet
378 336 m 1x50
 436 325 468 281 468 214 c 0
 468 79 370 -17 206 -17 c 0
 90 -17 20 23 20 67 c 0
 20 96 45 126 73 126 c 0
 104 126 121 111 138 102 c 0
 158 91 181 86 208 86 c 0
 295 86 344 135 344 204 c 0xa0
 344 253 325 272 280 278 c 0
 244 283 216 283 216 303 c 0
 216 373 244 363 283 372 c 0
 351 388 385 419 385 477 c 0
 385 509 358 536 321 536 c 0
 262 536 212 490 172 490 c 0
 154 490 141 505 141 525 c 0
 141 575 239 634 354 634 c 0
 449 634 507 579 507 498 c 0
 507 417 464 364 378 336 c 1x50
EndSplineSet
EndChar
StartChar: four
Encoding: 52 52 20
Width: 602
Flags: MW
HStem: 0 89<185 292 215 292 387 416> 156 83<172 306 172 402 421 447 447 453.5> 614 20<382 388.5>
VStem: 54 477<171 245>
LayerCount: 2
Fore
SplineSet
172 239 m 1
 325 239 l 1
 388 518 l 1
 172 239 l 1
292 89 m 1
 306 156 l 1
 87 156 l 2
 65 156 54 164 54 178 c 0
 54 180 55 182 55 184 c 2
 59 205 l 2
 61 218 65 226 72 235 c 2
 367 621 l 2
 374 630 377 634 387 634 c 0
 390 634 393 634 397 633 c 2
 484 617 l 2
 495 615 500 611 500 606 c 0
 500 605 499 598 497 588 c 2
 421 239 l 1
 447 239 l 2
 460 239 464 263 497 263 c 0
 520 263 531 253 531 237 c 0
 531 231 531 225 528 219 c 2
 506 167 l 2
 504 161 494 156 481 156 c 2
 402 156 l 1
 387 89 l 1
 427 89 l 2
 463 89 480 81 480 50 c 0
 480 15 459 0 416 0 c 2
 203 0 l 2
 167 0 150 8 150 39 c 0
 150 75 171 89 215 89 c 2
 292 89 l 1
EndSplineSet
EndChar
StartChar: five
Encoding: 53 53 21
Width: 602
Flags: MW
HStem: -16 104<204.5 279 204.5 310> 314 97<259 391> 514 102<269 510 269 269>
VStem: 383 126<183 250.5>
LayerCount: 2
Fore
SplineSet
238 387 m 1
 273 403 305 411 337 411 c 0
 445 411 509 345 509 239 c 0
 509 90 399 -16 221 -16 c 0
 98 -16 37 6 37 58 c 0
 37 87 61 110 90 110 c 0
 128 110 175 88 234 88 c 0
 324 88 383 146 383 220 c 0
 383 281 350 314 290 314 c 0
 228 314 185 275 146 275 c 0
 120 275 110 286 110 310 c 0
 110 319 113 334 119 356 c 2
 175 580 l 2
 183 612 189 616 226 616 c 2
 529 616 l 2
 551 616 560 605 560 581 c 0
 560 534 543 514 510 514 c 2
 269 514 l 1
 238 387 l 1
EndSplineSet
EndChar
StartChar: six
Encoding: 54 54 22
Width: 602
Flags: MW
HStem: -16 98<250 302 250 328.5> 291 98<327 333> 535 98
VStem: 72 132<136 197 136 241.5> 383 123<180.5 238>
LayerCount: 2
Fore
SplineSet
204 161 m 0
 204 111 228 82 272 82 c 0
 332 82 383 146 383 215 c 0
 383 261 355 291 311 291 c 0
 254 291 204 233 204 161 c 0
231 337 m 1
 270 374 303 389 351 389 c 0
 442 389 506 322 506 227 c 0
 506 101 400 -16 257 -16 c 0
 138 -16 72 57 72 179 c 0
 72 304 135 450 236 536 c 0
 310 599 409 633 521 633 c 0
 563 633 584 616 584 587 c 0
 584 535 537 541 480 535 c 0
 359 522 269 451 231 337 c 1
EndSplineSet
EndChar
StartChar: seven
Encoding: 55 55 23
Width: 602
Flags: MW
HStem: -7 20 514 102<207 410 207 207>
VStem: 115 429<481 605.5>
LayerCount: 2
Fore
SplineSet
260 11 m 2
 254 -1 249 -7 241 -7 c 2
 139 -7 l 2
 128 -7 123 -6 123 4 c 0
 123 7 126 16 131 25 c 2
 410 514 l 1
 207 514 l 1
 191 475 182 460 154 460 c 0
 128 460 115 471 115 491 c 0
 115 497 116 503 119 512 c 2
 144 589 l 2
 150 607 160 616 184 616 c 2
 519 616 l 2
 536 616 544 613 544 598 c 0
 544 581 534 564 534 558 c 0
 534 556 528 546 519 528 c 2
 260 11 l 2
EndSplineSet
EndChar
StartChar: eight
Encoding: 56 56 24
Width: 602
Flags: W
HStem: -16 92<230 285.5 230 321.5> 260 108<295.5 316> 541 91<323.5 376>
VStem: 53 123<129 179.5> 123 121<418 466 418 487.5> 369 127<158 210.5> 426 122<445.5 495>
LayerCount: 2
Fore
SplineSet
176 152 m 0xd4
 176 106 207 76 253 76 c 0
 318 76 369 128 369 188 c 0
 369 233 340 260 292 260 c 0
 230 260 176 208 176 152 c 0xd4
244 440 m 0x6a
 244 396 274 368 317 368 c 0
 377 368 426 417 426 474 c 0
 426 516 399 541 353 541 c 0
 294 541 244 492 244 440 c 0x6a
408 317 m 1
 468 293 496 255 496 195 c 0
 496 77 398 -16 245 -16 c 0
 120 -16 53 41 53 139 c 0xd4
 53 220 103 286 193 317 c 1
 143 348 123 380 123 433 c 0
 123 542 222 632 356 632 c 0
 477 632 548 568 548 478 c 0
 548 401 499 343 408 317 c 1
EndSplineSet
EndChar
StartChar: nine
Encoding: 57 57 25
Width: 602
Flags: MW
HStem: -16 98 228 99<278 284> 535 98<309 361>
VStem: 106 122<379 436.5 379 453> 407 132<420 481>
LayerCount: 2
Fore
SplineSet
381 280 m 1
 342 243 308 228 260 228 c 0
 169 228 106 295 106 390 c 0
 106 516 211 633 354 633 c 0
 473 633 539 560 539 438 c 0
 539 313 476 167 375 81 c 0
 301 18 202 -16 90 -16 c 0
 48 -16 27 2 27 31 c 0
 27 83 74 76 131 82 c 0
 252 95 343 166 381 280 c 1
407 456 m 0
 407 506 383 535 339 535 c 0
 279 535 228 471 228 402 c 0
 228 356 256 327 300 327 c 0
 357 327 407 384 407 456 c 0
EndSplineSet
EndChar
StartChar: colon
Encoding: 58 58 26
Width: 602
Flags: W
HStem: -12 174<223 281.5> 263 174<278 336.5>
VStem: 155 194<49.5 100.5> 211 193<324.5 375.5>
LayerCount: 2
Fore
SplineSet
211 350 m 0x50
 211 401 249 437 307 437 c 0
 366 437 404 401 404 350 c 0
 404 299 366 263 307 263 c 0
 249 263 211 299 211 350 c 0x50
155 75 m 0xa0
 155 126 194 162 252 162 c 0
 311 162 349 126 349 75 c 0
 349 24 311 -12 252 -12 c 0
 194 -12 155 24 155 75 c 0xa0
EndSplineSet
EndChar
StartChar: semicolon
Encoding: 59 59 27
Width: 602
Flags: W
HStem: -164 20 147 20<245 350 350 354> 263 174<300 358.5>
VStem: 84 280 233 193<324.5 375.5>
LayerCount: 2
Fore
SplineSet
233 350 m 0x28
 233 401 271 437 329 437 c 0
 388 437 426 401 426 350 c 0
 426 299 388 263 329 263 c 0
 271 263 233 299 233 350 c 0x28
93 -107 m 2xd0
 209 145 l 2
 217 162 225 167 245 167 c 2
 350 167 l 2
 358 167 364 162 364 154 c 0
 364 151 363 149 361 146 c 2
 164 -148 l 2
 157 -159 148 -164 137 -164 c 0
 133 -164 130 -163 126 -161 c 2
 93 -144 l 2
 88 -141 84 -135 84 -130 c 0
 84 -128 87 -120 93 -107 c 2xd0
EndSplineSet
EndChar
StartChar: less
Encoding: 60 60 28
Width: 602
Flags: MW
HStem: 62 20 532 20<506 524.5>
VStem: 42 514<101 319.5>
LayerCount: 2
Fore
SplineSet
520 163 m 2
 544 152 556 139 556 116 c 0
 556 86 538 62 511 62 c 0
 501 62 490 66 476 72 c 2
 87 254 l 2
 57 268 42 282 42 307 c 0
 42 332 57 346 87 360 c 2
 476 542 l 2
 490 548 501 552 511 552 c 0
 538 552 556 529 556 499 c 0
 556 476 544 463 520 452 c 2
 210 307 l 1
 520 163 l 2
EndSplineSet
EndChar
StartChar: greater
Encoding: 62 62 30
Width: 602
Flags: MW
HStem: 62 20 532 20<64.5 83>
VStem: 33 514<101 319.5 294.5 514>
LayerCount: 2
Fore
SplineSet
68 452 m 2
 44 463 33 476 33 499 c 0
 33 529 51 552 78 552 c 0
 88 552 98 548 112 542 c 2
 502 360 l 2
 532 346 547 332 547 307 c 0
 547 282 532 268 502 254 c 2
 112 72 l 2
 98 66 88 62 78 62 c 0
 51 62 33 86 33 116 c 0
 33 139 44 152 68 163 c 2
 378 307 l 1
 68 452 l 2
EndSplineSet
EndChar
StartChar: question
Encoding: 63 63 31
Width: 602
Flags: MW
HStem: -13 139<178 224.5> 165 20 502 93<299 334.5>
VStem: 124 154<35.5 76> 377 132<426.5 461.5>
LayerCount: 2
Fore
SplineSet
298 245 m 1
 291 213 l 2
 283 181 265 165 223 165 c 0
 191 165 173 179 173 204 c 0
 173 207 173 212 174 216 c 2
 179 243 l 2
 187 280 211 307 251 325 c 2
 309 351 l 2
 350 369 377 407 377 446 c 0
 377 477 353 502 316 502 c 0
 282 502 253 488 242 467 c 0
 232 448 229 421 188 421 c 0
 160 421 146 430 146 450 c 0
 146 453 146 457 147 461 c 2
 160 522 l 2
 170 570 233 595 334 595 c 0
 445 595 509 539 509 441 c 0
 509 345 439 280 298 245 c 1
124 56 m 0
 124 96 154 126 201 126 c 0
 249 126 278 97 278 56 c 0
 278 15 248 -13 201 -13 c 0
 155 -13 124 15 124 56 c 0
EndSplineSet
EndChar
StartChar: at
Encoding: 64 64 32
Width: 602
Flags: MW
HStem: -53 88<263 316.5 263 321> 170 75<304 369> 377 74<379.5 402.5 402 404> 572 95<356 398>
VStem: 76 105<141 220.5> 232 87<279 314 279 321.5> 446 104<518.5 521>
LayerCount: 2
Fore
SplineSet
397 253 m 1
 423 376 l 1
 404 377 l 2
 403 377 403 377 402 377 c 0
 357 377 319 335 319 293 c 0
 319 265 336 245 364 245 c 0
 374 245 384 248 397 253 c 1
410 186 m 1
 379 176 354 170 334 170 c 0
 274 170 232 213 232 276 c 0
 232 367 311 451 421 451 c 0
 428 451 434 451 440 450 c 1
 444 470 446 486 446 496 c 0
 446 546 421 572 375 572 c 0
 329 572 290 540 254 475 c 0
 212 400 181 279 181 192 c 0
 181 90 226 35 300 35 c 0
 333 35 360 52 382 52 c 0
 402 52 413 41 413 19 c 0
 413 -16 361 -53 281 -53 c 0
 160 -53 76 42 76 196 c 0
 76 245 86 304 107 374 c 0
 129 450 157 510 189 554 c 0
 243 628 317 667 395 667 c 0
 487 667 550 606 550 525 c 0
 550 512 548 496 545 480 c 2
 498 249 l 1
 508 232 513 220 513 209 c 0
 513 183 491 161 464 161 c 0
 449 161 432 169 410 186 c 1
EndSplineSet
EndChar
StartChar: A
Encoding: 65 65 33
Width: 602
Flags: MW
HStem: 0 108<-12 34 16 34 16 133 368 392> 162 102<231 372 231 385 179 372> 471 108<176 405 218 235>
VStem: -44 605<43.5 63>
LayerCount: 2
Fore
SplineSet
231 264 m 1
 372 264 l 1
 342 478 l 1
 231 264 l 1
235 471 m 1
 188 471 l 2
 164 471 146 487 146 515 c 0
 146 556 171 579 218 579 c 2
 405 579 l 2
 429 579 441 570 444 547 c 2
 509 108 l 1
 520 108 l 2
 544 108 561 92 561 64 c 0
 561 23 536 0 489 0 c 2
 347 0 l 2
 315 0 299 14 299 44 c 0
 299 84 325 108 368 108 c 2
 392 108 l 1
 385 162 l 1
 179 162 l 1
 150 108 l 1
 155 108 l 2
 188 108 205 93 205 63 c 0
 205 23 180 0 133 0 c 2
 4 0 l 2
 -28 0 -44 14 -44 44 c 0
 -44 82 -17 108 16 108 c 2
 34 108 l 1
 235 471 l 1
EndSplineSet
EndChar
StartChar: B
Encoding: 66 66 34
Width: 602
Flags: W
HStem: 0 108<21 63 49 63 182 299 299 302> 251 97<233 300 300 309 212 300> 471 108<113 365 125 365 259 259 259 331>
VStem: 406 133<160 214> 419 131<410 442>
LayerCount: 2
Fore
SplineSet
37 0 m 2xd0
 5 0 -10 14 -10 44 c 0
 -10 82 16 108 49 108 c 2
 63 108 l 1
 138 471 l 1
 125 471 l 2
 101 471 83 487 83 515 c 0
 83 556 108 579 155 579 c 2
 365 579 l 2
 490 579 550 541 550 447 c 0xe8
 550 373 515 333 436 310 c 1
 507 293 539 255 539 188 c 0
 539 63 460 0 302 0 c 2
 37 0 l 2xd0
233 348 m 1xe8
 300 348 l 2
 378 348 419 368 419 420 c 0
 419 464 391 471 331 471 c 2
 259 471 l 1
 233 348 l 1xe8
182 108 m 1xd0
 299 108 l 2
 371 108 406 133 406 187 c 0
 406 241 379 251 309 251 c 2
 212 251 l 1
 182 108 l 1xd0
EndSplineSet
EndChar
StartChar: C
Encoding: 67 67 35
Width: 602
Flags: MW
HStem: -15 106<252 331> 487 108<329.5 402>
VStem: 32 137<181 252.5>
LayerCount: 2
Fore
SplineSet
512 563 m 1
 527 586 540 594 563 594 c 0
 587 594 599 585 599 563 c 0
 599 559 598 550 595 537 c 2
 566 400 l 2
 559 369 544 354 516 354 c 0
 481 354 470 361 470 397 c 0
 470 400 470 404 470 407 c 0
 470 456 433 487 371 487 c 0
 263 487 169 362 169 223 c 0
 169 139 212 91 292 91 c 0
 382 91 444 159 489 159 c 0
 512 159 529 141 529 117 c 0
 529 62 409 -15 253 -15 c 0
 115 -15 32 72 32 204 c 0
 32 301 70 406 129 477 c 0
 195 557 277 595 382 595 c 0
 429 595 471 584 512 563 c 1
EndSplineSet
EndChar
StartChar: D
Encoding: 68 68 36
Width: 602
Flags: MW
HStem: 0 108<21 64 50 64 50 186> 471 108<263 294 263 263>
VStem: 434 138<309.5 395.5>
LayerCount: 2
Fore
SplineSet
294 471 m 2
 263 471 l 1
 188 109 l 1
 212 109 l 2
 272 109 317 116 349 138 c 0
 400 173 434 253 434 355 c 0
 434 436 388 471 294 471 c 2
37 0 m 2
 5 0 -10 14 -10 44 c 0
 -10 82 17 108 50 108 c 2
 64 108 l 1
 138 470 l 1
 125 470 l 2
 102 470 84 487 84 515 c 0
 84 556 109 579 156 579 c 2
 306 579 l 2
 485 579 572 513 572 368 c 0
 572 251 536 152 476 89 c 0
 395 4 304 0 186 0 c 2
 37 0 l 2
EndSplineSet
EndChar
StartChar: E
Encoding: 69 69 37
Width: 602
Flags: MW
HStem: 0 108<24 66 52 66 191 404> 253 95<241 297 221 318> 471 108<116 557 128 557 265 480 265 265>
VStem: -8 601<29 561>
LayerCount: 2
Fore
SplineSet
557 579 m 2
 581 579 593 568 593 554 c 0
 593 551 593 549 592 547 c 2
 566 419 l 2
 558 382 550 364 512 364 c 0
 482 364 468 374 468 399 c 0
 468 408 469 417 471 428 c 2
 480 471 l 1
 265 471 l 1
 241 348 l 1
 318 348 l 1
 326 393 340 410 375 410 c 0
 402 410 417 397 417 372 c 0
 417 367 416 358 414 350 c 2
 392 244 l 2
 384 207 376 189 338 189 c 0
 308 189 294 199 294 224 c 0
 294 233 295 242 297 253 c 1
 221 253 l 1
 191 108 l 1
 404 108 l 1
 412 150 l 2
 421 202 437 221 474 221 c 0
 503 221 518 207 518 178 c 0
 518 173 518 166 516 158 c 2
 491 39 l 2
 485 10 473 0 445 0 c 2
 40 0 l 2
 8 0 -8 14 -8 44 c 0
 -8 82 19 108 52 108 c 2
 66 108 l 1
 141 471 l 1
 128 471 l 2
 104 471 86 487 86 515 c 0
 86 556 111 579 158 579 c 2
 557 579 l 2
EndSplineSet
EndChar
StartChar: F
Encoding: 70 70 38
Width: 602
Flags: MW
HStem: 0 108<38 80 66 80 205 209> 253 95<254 311 235 331> 471 108<129 571 141 571 279 494 279 279>
VStem: 6 601<29 561>
LayerCount: 2
Fore
SplineSet
571 579 m 2
 595 579 607 568 607 554 c 0
 607 551 607 549 606 547 c 2
 580 419 l 2
 572 382 563 364 525 364 c 0
 495 364 481 374 481 399 c 0
 481 408 483 417 485 428 c 2
 494 471 l 1
 279 471 l 1
 254 348 l 1
 331 348 l 1
 339 393 354 410 389 410 c 0
 416 410 431 397 431 372 c 0
 431 367 430 358 428 350 c 2
 406 244 l 2
 398 207 390 189 352 189 c 0
 322 189 308 199 308 224 c 0
 308 233 309 242 311 253 c 1
 235 253 l 1
 205 108 l 1
 231 108 l 2
 264 108 281 93 281 63 c 0
 281 23 256 0 209 0 c 2
 54 0 l 2
 22 0 6 14 6 44 c 0
 6 82 33 108 66 108 c 2
 80 108 l 1
 154 471 l 1
 141 471 l 2
 117 471 100 487 100 515 c 0
 100 556 125 579 172 579 c 2
 571 579 l 2
EndSplineSet
EndChar
StartChar: G
Encoding: 71 71 39
Width: 602
Flags: MW
HStem: -15 106<247.5 297> 180 108<324 528 367 393 507 507> 487 108<336 391>
VStem: 24 135<176 252.5>
LayerCount: 2
Fore
SplineSet
500 563 m 1
 515 586 527 594 550 594 c 0
 574 594 586 585 586 563 c 0
 586 559 585 551 582 537 c 2
 554 400 l 2
 548 369 531 354 504 354 c 0
 470 354 458 361 458 397 c 0
 458 400 458 404 458 407 c 0
 458 456 422 487 360 487 c 0
 312 487 269 466 233 423 c 0
 188 369 159 290 159 219 c 0
 159 133 203 91 292 91 c 0
 323 91 351 96 379 106 c 1
 393 180 l 1
 336 180 l 2
 312 180 295 197 295 225 c 0
 295 266 320 288 367 288 c 2
 528 288 l 2
 559 288 575 274 575 244 c 0
 575 204 552 182 507 180 c 1
 485 66 l 2
 480 42 478 35 457 24 c 0
 420 6 340 -15 254 -15 c 0
 105 -15 24 68 24 204 c 0
 24 301 62 406 120 477 c 0
 186 557 267 595 371 595 c 0
 417 595 460 584 500 563 c 1
EndSplineSet
EndChar
StartChar: H
Encoding: 72 72 40
Width: 602
Flags: MW
HStem: 0 108<24 66 52 66 52 169> 253 103<241 367 219 389> 471 108<116 286 128 286 265 265 537 537>
VStem: -8 614<29 549>
LayerCount: 2
Fore
SplineSet
412 471 m 1
 378 472 363 485 363 515 c 0
 363 555 388 579 435 579 c 2
 558 579 l 2
 590 579 606 564 606 534 c 0
 606 494 582 473 537 471 c 1
 463 108 l 1
 474 108 l 2
 498 108 515 92 515 64 c 0
 515 23 490 0 443 0 c 2
 317 0 l 2
 285 0 270 14 270 44 c 0
 270 84 293 107 338 108 c 1
 367 253 l 1
 219 253 l 1
 191 108 l 1
 225 108 241 93 241 63 c 0
 241 23 216 0 169 0 c 2
 40 0 l 2
 8 0 -8 14 -8 44 c 0
 -8 82 19 108 52 108 c 2
 66 108 l 1
 141 471 l 1
 128 471 l 2
 104 471 86 487 86 515 c 0
 86 556 111 579 158 579 c 2
 286 579 l 2
 318 579 334 564 334 534 c 0
 334 494 310 473 265 471 c 1
 241 356 l 1
 389 356 l 1
 412 471 l 1
EndSplineSet
EndChar
StartChar: I
Encoding: 73 73 41
Width: 602
Flags: MW
HStem: 0 108<88 203 116 203 325 381> 471 108<180 496 222 277 399 399 399 449>
VStem: 56 487<29 549>
LayerCount: 2
Fore
SplineSet
104 0 m 2
 72 0 56 14 56 44 c 0
 56 82 83 108 116 108 c 2
 203 108 l 1
 277 471 l 1
 192 471 l 2
 168 471 150 487 150 515 c 0
 150 556 175 579 222 579 c 2
 496 579 l 2
 528 579 543 564 543 534 c 0
 543 481 511 471 449 471 c 2
 399 471 l 1
 325 108 l 1
 411 108 l 2
 435 108 453 92 453 64 c 0
 453 23 428 0 381 0 c 2
 104 0 l 2
EndSplineSet
EndChar
StartChar: J
Encoding: 74 74 42
Width: 602
Flags: MW
HStem: -15 101<189.5 253.5> 471 108<291 576 333 388 510 510 510 529>
VStem: 20 603<58 549>
LayerCount: 2
Fore
SplineSet
41 199 m 2
 50 251 66 270 104 270 c 0
 133 270 148 256 148 230 c 0
 148 213 141 191 141 165 c 0
 141 112 164 86 215 86 c 0
 302 86 321 146 345 262 c 2
 388 471 l 1
 303 471 l 2
 279 471 261 487 261 515 c 0
 261 556 286 579 333 579 c 2
 576 579 l 2
 608 579 623 564 623 534 c 0
 623 481 591 471 529 471 c 2
 510 471 l 1
 459 224 l 2
 445 159 437 104 405 61 c 0
 371 15 299 -15 208 -15 c 0
 144 -15 88 0 55 20 c 0
 28 36 20 48 20 68 c 0
 20 75 21 82 22 90 c 2
 41 199 l 2
EndSplineSet
EndChar
StartChar: K
Encoding: 75 75 43
Width: 602
Flags: MW
HStem: 0 108<33 75 61 75 61 178> 471 108<125 295 137 295 274 274 552 552>
VStem: 1 620<29 549>
LayerCount: 2
Fore
SplineSet
425 476 m 1
 401 481 389 492 389 514 c 0
 389 556 413 579 459 579 c 2
 573 579 l 2
 605 579 621 564 621 534 c 0
 621 494 597 473 552 471 c 1
 376 324 l 1
 426 276 457 205 477 108 c 1
 507 108 l 2
 531 108 548 92 548 64 c 0
 548 23 523 0 476 0 c 2
 408 0 l 2
 363 0 372 20 353 88 c 0
 333 161 312 214 275 245 c 1
 218 199 l 1
 200 108 l 1
 234 108 250 93 250 63 c 0
 250 23 225 0 178 0 c 2
 49 0 l 2
 17 0 1 14 1 44 c 0
 1 82 28 108 61 108 c 2
 75 108 l 1
 150 471 l 1
 137 471 l 2
 113 471 95 487 95 515 c 0
 95 556 120 579 167 579 c 2
 295 579 l 2
 327 579 343 564 343 534 c 0
 343 494 319 473 274 471 c 1
 242 322 l 1
 425 476 l 1
EndSplineSet
EndChar
StartChar: L
Encoding: 76 76 44
Width: 602
Flags: MW
HStem: 0 108<28 91 56 91 215 429> 471 108<120 343 162 165 290 290 290 322>
VStem: -3 546<29 192.5>
LayerCount: 2
Fore
SplineSet
44 0 m 2
 12 0 -3 14 -3 44 c 0
 -3 82 23 108 56 108 c 2
 91 108 l 1
 165 471 l 1
 132 471 l 2
 108 471 90 487 90 515 c 0
 90 556 115 579 162 579 c 2
 343 579 l 2
 375 579 391 564 391 534 c 0
 391 494 365 471 322 471 c 2
 290 471 l 1
 215 108 l 1
 429 108 l 1
 436 150 l 2
 445 202 462 221 499 221 c 0
 528 221 543 207 543 178 c 0
 543 173 542 166 540 158 c 2
 515 39 l 2
 509 10 498 0 470 0 c 2
 44 0 l 2
EndSplineSet
EndChar
StartChar: M
Encoding: 77 77 45
Width: 602
Flags: MW
HStem: 0 108<-22 21 6 21 6 103 388 402> 471 108<82 201 94 201 569 569>
VStem: -53 690<29 549>
LayerCount: 2
Fore
SplineSet
191 415 m 1
 125 108 l 1
 159 108 175 93 175 63 c 0
 175 23 150 0 103 0 c 2
 -6 0 l 2
 -38 0 -53 14 -53 44 c 0
 -53 82 -27 108 6 108 c 2
 21 108 l 1
 107 471 l 1
 94 471 l 2
 70 471 53 487 53 515 c 0
 53 556 78 579 125 579 c 2
 201 579 l 2
 236 579 251 568 255 535 c 2
 293 240 l 1
 453 542 l 2
 467 568 485 579 515 579 c 2
 590 579 l 2
 622 579 637 564 637 534 c 0
 637 494 614 473 569 471 c 1
 507 108 l 1
 541 108 556 93 556 63 c 0
 556 23 531 0 484 0 c 2
 376 0 l 2
 344 0 328 14 328 44 c 0
 328 82 355 108 388 108 c 2
 402 108 l 1
 459 410 l 1
 341 186 l 2
 321 149 302 136 268 136 c 0
 237 136 222 151 217 191 c 2
 191 415 l 1
EndSplineSet
EndChar
StartChar: N
Encoding: 78 78 46
Width: 602
Flags: MW
HStem: 0 108<7 50 35 50 35 152> 471 108<99 230 111 230 556 556>
VStem: -24 648<29 549>
LayerCount: 2
Fore
SplineSet
447 471 m 1
 435 471 l 2
 398 471 381 484 381 515 c 0
 381 555 406 579 453 579 c 2
 577 579 l 2
 609 579 624 564 624 534 c 0
 624 494 601 473 556 471 c 1
 463 25 l 2
 458 0 451 -8 428 -8 c 2
 384 -8 l 2
 359 -8 349 -6 340 20 c 2
 212 403 l 1
 158 108 l 1
 174 108 l 2
 207 108 224 93 224 63 c 0
 224 23 199 0 152 0 c 2
 23 0 l 2
 -9 0 -24 14 -24 44 c 0
 -24 82 2 108 35 108 c 2
 50 108 l 1
 124 471 l 1
 111 471 l 2
 87 471 69 487 69 515 c 0
 69 556 94 579 141 579 c 2
 230 579 l 2
 253 579 264 571 271 550 c 2
 393 180 l 1
 447 471 l 1
EndSplineSet
EndChar
StartChar: O
Encoding: 79 79 47
Width: 602
Flags: MW
HStem: -15 112<236 308.5> 485 110<301 368.5>
VStem: 17 142<190 275> 446 139<308.5 392>
LayerCount: 2
Fore
SplineSet
348 595 m 0
 495 595 585 505 585 351 c 0
 585 266 557 182 508 114 c 0
 447 30 361 -15 256 -15 c 0
 104 -15 17 77 17 228 c 0
 17 322 52 418 113 489 c 0
 172 558 254 595 348 595 c 0
446 347 m 0
 446 437 402 485 335 485 c 0
 243 485 159 367 159 235 c 0
 159 145 202 97 270 97 c 0
 362 97 446 218 446 347 c 0
EndSplineSet
EndChar
StartChar: P
Encoding: 80 80 48
Width: 602
Flags: MW
HStem: 0 108<34 77 62 77 201 206> 210 109<242 299 299 302 222 299> 471 108<126 371 138 371 277 277 277 351>
VStem: 442 136<372 425>
LayerCount: 2
Fore
SplineSet
371 579 m 2
 510 579 578 527 578 419 c 0
 578 281 486 210 302 210 c 2
 222 210 l 1
 201 108 l 1
 228 108 l 2
 261 108 278 93 278 63 c 0
 278 23 253 0 206 0 c 2
 50 0 l 2
 18 0 3 14 3 44 c 0
 3 82 29 108 62 108 c 2
 77 108 l 1
 151 471 l 1
 138 471 l 2
 114 471 97 487 97 515 c 0
 97 556 122 579 169 579 c 2
 371 579 l 2
242 319 m 1
 299 319 l 2
 397 319 442 341 442 403 c 0
 442 447 411 471 351 471 c 2
 277 471 l 1
 242 319 l 1
EndSplineSet
EndChar
StartChar: Q
Encoding: 81 81 49
Width: 602
Flags: W
HStem: -150 87<362.5 391.5 362.5 392.5> -119 78<228.5 230> -15 112<250.5 316 236 353.5> 485 110<300.5 368.5>
VStem: 17 142<190 275> 446 139<282.5 392>
LayerCount: 2
Fore
SplineSet
446 347 m 0xbc
 446 437 402 485 335 485 c 0
 243 485 159 367 159 235 c 0
 159 145 202 97 270 97 c 0
 362 97 446 218 446 347 c 0xbc
144 6 m 1x7c
 60 45 17 120 17 228 c 0
 17 322 52 418 113 489 c 0
 171 557 254 595 347 595 c 0
 496 595 585 506 585 351 c 0
 585 151 445 -15 262 -15 c 0
 239 -15 216 -13 193 -8 c 1
 109 -79 l 1
 160 -55 204 -41 253 -41 c 0x7c
 308 -41 348 -63 377 -63 c 0xbc
 406 -63 435 -41 456 -41 c 0x7c
 479 -41 491 -50 491 -69 c 0
 491 -108 428 -150 357 -150 c 0xbc
 300 -150 250 -119 210 -119 c 0
 147 -119 98 -158 69 -158 c 0
 46 -158 30 -141 30 -119 c 0
 30 -91 49 -73 79 -48 c 2
 144 6 l 1x7c
EndSplineSet
EndChar
StartChar: R
Encoding: 82 82 50
Width: 602
Flags: MW
HStem: 0 108<26 68 54 68 54 179> 235 99<240 265 219 289> 472 107<268 338 268 268>
VStem: 423 138<393 431>
LayerCount: 2
Fore
SplineSet
362 579 m 2
 495 579 561 533 561 436 c 0
 561 350 510 291 414 266 c 1
 427 259 431 250 435 239 c 2
 488 108 l 1
 500 108 l 2
 533 108 550 93 550 63 c 0
 550 23 525 0 478 0 c 2
 431 0 l 2
 396 0 392 5 380 34 c 2
 306 207 l 2
 297 229 288 235 265 235 c 2
 219 235 l 1
 193 108 l 1
 202 108 l 2
 235 108 251 93 251 63 c 0
 251 23 226 0 179 0 c 2
 42 0 l 2
 10 0 -6 14 -6 44 c 0
 -6 82 21 108 54 108 c 2
 68 108 l 1
 142 471 l 1
 129 471 l 2
 105 471 88 487 88 515 c 0
 88 556 113 579 160 579 c 2
 362 579 l 2
240 334 m 1
 289 334 l 2
 381 334 423 355 423 411 c 0
 423 451 394 472 338 472 c 2
 268 472 l 1
 240 334 l 1
EndSplineSet
EndChar
StartChar: S
Encoding: 83 83 51
Width: 602
Flags: MW
HStem: -14 90<245 304 245 341> 501 94<332 379.5>
VStem: 125 146<413.5 454 413.5 461> 372 146<127.5 178>
LayerCount: 2
Fore
SplineSet
117 11 m 1
 103 -10 89 -20 70 -20 c 0
 42 -20 27 -5 27 24 c 0
 27 29 28 35 29 42 c 2
 49 171 l 2
 54 201 71 217 100 217 c 0
 148 217 136 180 153 140 c 0
 169 103 216 76 274 76 c 0
 334 76 372 108 372 147 c 0
 372 209 317 217 238 257 c 0
 162 295 125 343 125 407 c 0
 125 515 214 595 359 595 c 0
 404 595 442 588 484 568 c 1
 496 593 510 604 533 604 c 0
 558 604 571 590 571 564 c 0
 571 558 570 552 569 545 c 2
 548 430 l 2
 543 404 525 390 497 390 c 0
 459 390 457 410 444 443 c 0
 428 483 402 501 357 501 c 0
 307 501 271 474 271 434 c 0
 271 393 303 377 359 351 c 0
 460 304 518 270 518 182 c 0
 518 69 417 -14 265 -14 c 0
 219 -14 170 -6 117 11 c 1
EndSplineSet
EndChar
StartChar: T
Encoding: 84 84 52
Width: 602
Flags: MW
HStem: 0 108<84 199 112 199 322 377> 471 108<172 274 172 172 396 396 396 498>
VStem: 52 560<336.5 560.5>
LayerCount: 2
Fore
SplineSet
100 0 m 2
 68 0 53 14 53 44 c 0
 53 82 79 108 112 108 c 2
 199 108 l 1
 274 471 l 1
 172 471 l 1
 150 369 l 2
 142 333 134 314 96 314 c 0
 66 314 52 324 52 349 c 0
 52 359 53 368 55 378 c 2
 92 551 l 2
 95 567 110 579 131 579 c 2
 576 579 l 2
 599 579 612 568 612 553 c 0
 612 551 611 549 611 547 c 2
 574 369 l 2
 566 333 557 314 519 314 c 0
 489 314 475 324 475 349 c 0
 475 358 477 368 479 378 c 2
 498 471 l 1
 396 471 l 1
 322 108 l 1
 408 108 l 2
 432 108 449 92 449 64 c 0
 449 23 424 0 377 0 c 2
 100 0 l 2
EndSplineSet
EndChar
StartChar: U
Encoding: 85 85 53
Width: 602
Flags: MW
HStem: -17 108<235 299 235 321> 471 108<89 260 101 260 241 241 559 559>
VStem: 56 571<95.5 549>
LayerCount: 2
Fore
SplineSet
559 471 m 1
 502 194 l 2
 473 50 393 -17 249 -17 c 0
 121 -17 56 40 56 151 c 0
 56 175 60 202 66 232 c 2
 114 471 l 1
 101 471 l 2
 77 471 60 487 60 515 c 0
 60 556 85 579 132 579 c 2
 260 579 l 2
 292 579 307 564 307 534 c 0
 307 495 285 474 241 471 c 1
 189 212 l 2
 186 195 184 177 184 161 c 0
 184 115 210 91 260 91 c 0
 338 91 369 134 388 225 c 2
 439 471 l 1
 405 472 389 485 389 515 c 0
 389 555 414 579 461 579 c 2
 580 579 l 2
 612 579 627 564 627 534 c 0
 627 494 604 473 559 471 c 1
EndSplineSet
EndChar
StartChar: V
Encoding: 86 86 54
Width: 602
Flags: MW
HStem: 0 20 471 108<74 253 86 253 227 227 227 232 572 572 572 580>
VStem: 45 595<515 535.5>
LayerCount: 2
Fore
SplineSet
325 26 m 2
 314 7 305 0 280 0 c 2
 201 0 l 2
 177 0 165 9 162 32 c 2
 97 471 l 1
 86 471 l 2
 62 471 45 487 45 515 c 0
 45 556 70 579 117 579 c 2
 253 579 l 2
 285 579 301 564 301 534 c 0
 301 494 275 471 232 471 c 2
 227 471 l 1
 269 134 l 1
 456 471 l 1
 451 471 l 2
 418 471 401 485 401 515 c 0
 401 555 426 579 473 579 c 2
 592 579 l 2
 624 579 640 564 640 534 c 0
 640 496 613 471 580 471 c 2
 572 471 l 1
 325 26 l 2
EndSplineSet
EndChar
StartChar: W
Encoding: 87 87 55
Width: 602
Flags: MW
HStem: 0 20 471 108<69 224 81 224 198 198 198 203 577 577 577 585>
VStem: 40 605<515 535.5>
LayerCount: 2
Fore
SplineSet
300 309 m 1
 148 23 l 2
 138 5 128 0 107 0 c 2
 76 0 l 2
 53 0 46 1 46 17 c 0
 46 20 47 24 47 28 c 2
 92 471 l 1
 81 471 l 2
 57 471 40 487 40 515 c 0
 40 556 65 579 112 579 c 2
 224 579 l 2
 256 579 272 564 272 534 c 0
 272 494 246 471 203 471 c 2
 198 471 l 1
 158 204 l 1
 257 393 l 2
 276 430 290 442 330 442 c 0
 360 442 374 432 378 393 c 2
 397 203 l 1
 472 471 l 1
 467 471 l 2
 434 471 418 485 418 515 c 0
 418 555 443 579 490 579 c 2
 597 579 l 2
 629 579 645 564 645 534 c 0
 645 496 618 471 585 471 c 2
 577 471 l 1
 438 28 l 2
 431 7 425 0 403 0 c 2
 367 0 l 2
 343 0 338 5 335 27 c 2
 300 309 l 1
EndSplineSet
EndChar
StartChar: X
Encoding: 88 88 56
Width: 602
Flags: MW
HStem: 0 108<32 74 60 74 60 169 335 341> 471 108<127 292 139 292 273 273 170 399 521 521>
VStem: 0 580<29 549>
LayerCount: 2
Fore
SplineSet
197 108 m 1
 227 103 241 90 241 64 c 0
 241 23 216 0 169 0 c 2
 48 0 l 2
 16 0 0 14 0 44 c 0
 0 82 27 108 60 108 c 2
 74 108 l 1
 243 297 l 1
 152 471 l 1
 139 471 l 2
 115 471 98 487 98 515 c 0
 98 556 123 579 170 579 c 2
 292 579 l 2
 320 579 334 564 334 535 c 0
 334 494 314 473 273 471 c 1
 321 380 l 1
 399 471 l 1
 371 472 358 485 358 514 c 0
 358 555 378 579 417 579 c 2
 533 579 l 2
 565 579 580 564 580 534 c 0
 580 497 560 476 521 471 c 1
 367 296 l 1
 468 108 l 1
 478 108 l 2
 502 108 520 92 520 64 c 0
 520 23 495 0 448 0 c 2
 313 0 l 2
 285 0 271 15 271 44 c 0
 271 86 293 108 335 108 c 0
 337 108 339 108 341 108 c 1
 287 212 l 1
 197 108 l 1
EndSplineSet
EndChar
StartChar: Y
Encoding: 89 89 57
Width: 602
Flags: MW
HStem: 0 108<95 199 123 199 322 367> 471 108<114 282 126 282 271 271 527 527>
VStem: 63 524<29 549>
LayerCount: 2
Fore
SplineSet
139 471 m 1
 126 471 l 2
 102 471 85 487 85 515 c 0
 85 556 110 579 157 579 c 2
 282 579 l 2
 310 579 324 564 324 535 c 0
 324 497 307 477 271 471 c 1
 307 326 l 1
 406 471 l 1
 378 472 364 485 364 514 c 0
 364 555 385 579 424 579 c 2
 539 579 l 2
 571 579 587 564 587 534 c 0
 587 497 566 476 527 471 c 1
 345 223 l 1
 322 108 l 1
 397 108 l 2
 421 108 439 92 439 64 c 0
 439 23 414 0 367 0 c 2
 111 0 l 2
 79 0 63 14 63 44 c 0
 63 82 90 108 123 108 c 2
 199 108 l 1
 220 212 l 1
 139 471 l 1
EndSplineSet
EndChar
StartChar: Z
Encoding: 90 90 58
Width: 602
Flags: MW
HStem: 0 108<89.5 359 212 359 212 400> 470 109<236 369 236 236>
VStem: 45 491<27.5 550.5>
LayerCount: 2
Fore
SplineSet
221 404 m 2
 213 369 206 348 167 348 c 0
 137 348 123 359 123 384 c 0
 123 392 124 402 126 413 c 2
 152 538 l 2
 158 565 175 579 204 579 c 2
 469 579 l 2
 514 579 536 565 536 536 c 0
 536 516 529 497 521 487 c 2
 212 108 l 1
 359 108 l 1
 372 175 l 2
 382 227 396 246 434 246 c 0
 463 246 479 232 479 203 c 0
 479 198 478 191 476 183 c 2
 445 39 l 2
 439 10 427 0 400 0 c 2
 112 0 l 2
 67 0 45 13 45 42 c 0
 45 62 52 82 60 91 c 2
 369 470 l 1
 236 470 l 1
 221 404 l 2
EndSplineSet
EndChar
StartChar: bracketleft
Encoding: 91 91 59
Width: 602
Flags: MW
HStem: -181 79 500 78<319.5 469 319.5 406>
VStem: 144 374
LayerCount: 2
Fore
SplineSet
277 -102 m 1
 341 -102 l 2
 361 -102 368 -111 368 -131 c 0
 368 -171 354 -180 319 -180 c 2
 180 -181 l 2
 157 -181 144 -171 144 -153 c 0
 144 -149 145 -145 146 -141 c 2
 291 538 l 2
 297 565 307 578 332 578 c 2
 491 579 l 2
 511 579 518 570 518 550 c 0
 518 510 504 500 469 500 c 2
 406 500 l 1
 277 -102 l 1
EndSplineSet
EndChar
StartChar: backslash
Encoding: 92 92 60
Width: 602
Flags: MW
HStem: -125 20 683 20<123.5 148.5>
VStem: 81 441
LayerCount: 2
Fore
SplineSet
96 603 m 2
 87 622 81 638 81 654 c 0
 81 685 111 703 136 703 c 0
 161 703 175 683 191 648 c 2
 506 -26 l 2
 515 -45 522 -60 522 -75 c 0
 522 -106 491 -125 466 -125 c 0
 442 -125 427 -105 411 -70 c 2
 96 603 l 2
EndSplineSet
EndChar
StartChar: bracketright
Encoding: 93 93 61
Width: 602
Flags: MW
HStem: -180 78<116 265.5> 500 78<234 266 248.5 266 248.5 308>
VStem: 67 374
LayerCount: 2
Fore
SplineSet
308 500 m 1
 244 500 l 2
 224 500 217 509 217 529 c 0
 217 569 231 578 266 578 c 2
 405 579 l 2
 428 579 441 569 441 551 c 0
 441 547 440 543 439 539 c 2
 294 -140 l 2
 288 -167 278 -180 253 -180 c 2
 94 -181 l 2
 74 -181 67 -171 67 -151 c 0
 67 -111 81 -102 116 -102 c 2
 179 -102 l 1
 308 500 l 1
EndSplineSet
EndChar
StartChar: asciicircum
Encoding: 94 94 62
Width: 602
Flags: MW
HStem: 423 247<126.5 307.5 294.5 474.5>
VStem: 104 394<447 454.5 446.5 455.5>
LayerCount: 2
Fore
SplineSet
301 555 m 1
 150 431 l 2
 144 426 137 423 130 423 c 0
 123 423 117 426 113 430 c 0
 107 436 104 443 104 451 c 0
 104 460 108 469 116 479 c 2
 267 655 l 2
 275 665 288 670 301 670 c 0
 314 670 327 665 335 655 c 2
 486 479 l 2
 494 469 498 459 498 450 c 0
 498 443 495 436 489 430 c 0
 484 425 478 423 471 423 c 0
 466 423 460 425 456 428 c 2
 301 555 l 1
EndSplineSet
EndChar
StartChar: grave
Encoding: 193 96 123
Width: 602
Flags: MW
HStem: 499 20 652 20<174 180.5>
VStem: 127 259<535 610>
LayerCount: 2
Fore
SplineSet
362 499 m 1
 143 585 l 2
 132 589 127 598 127 608 c 0
 127 612 127 616 130 620 c 2
 155 658 l 2
 161 667 170 672 178 672 c 0
 183 672 190 670 196 666 c 2
 386 535 l 1
 362 499 l 1
EndSplineSet
EndChar
StartChar: a
Encoding: 97 97 65
Width: 602
Flags: W
HStem: -11 95<133 241> 0 108<381 480 397 480> 211 77<244 291.5> 377 88<293 345>
VStem: 36 124<119 157.5 119 169.5> 389 119<333 337.5>
LayerCount: 2
Fore
SplineSet
463 108 m 1x7c
 497 108 514 93 514 63 c 0
 514 22 489 0 440 0 c 2
 397 0 l 2x7c
 365 0 353 8 350 42 c 1
 285 5 222 -11 178 -11 c 0xa8
 88 -11 36 36 36 116 c 0
 36 223 128 288 275 288 c 0
 311 288 347 284 383 277 c 1
 387 294 389 308 389 320 c 0
 389 355 365 377 325 377 c 0
 261 377 208 329 160 329 c 0
 132 329 118 342 118 367 c 0
 118 426 201 465 344 465 c 0
 452 465 508 421 508 340 c 0
 508 326 506 310 502 291 c 2
 463 108 l 1x7c
351 125 m 1xa8
 367 201 l 1
 330 207 301 211 282 211 c 0
 206 211 160 178 160 137 c 0
 160 101 181 84 224 84 c 0
 258 84 303 97 351 125 c 1xa8
EndSplineSet
EndChar
StartChar: b
Encoding: 98 98 66
Width: 602
Flags: W
HStem: -8 101<263.5 318.5 254 363> 0 108<11 54 49 54 49 117> 357 106<337 346.5> 530 109<119.5 254 131 254>
VStem: 412 129<208 285.5>
LayerCount: 2
Fore
SplineSet
319 357 m 0xb8
 248 357 189 288 189 198 c 0
 189 133 225 93 283 93 c 0
 354 93 412 160 412 256 c 0
 412 315 374 357 319 357 c 0xb8
27 0 m 2x40
 -5 0 -20 14 -20 44 c 0
 -20 83 5 108 49 108 c 0
 51 108 52 108 54 108 c 2x40
 144 530 l 1
 131 530 l 2
 108 530 90 547 90 575 c 0
 90 616 115 639 162 639 c 2
 254 639 l 2
 267 639 275 632 275 619 c 0
 275 617 274 615 274 613 c 2
 232 415 l 1
 269 447 313 463 361 463 c 0
 469 463 541 391 541 260 c 0
 541 106 433 -8 293 -8 c 0xb8
 234 -8 192 10 156 52 c 1
 150 34 l 2
 143 12 138 0 117 0 c 2
 27 0 l 2x40
EndSplineSet
EndChar
StartChar: c
Encoding: 99 99 67
Width: 602
Flags: MW
HStem: -11 100<232.5 317.5 232.5 322.5> 360 103<275 357>
VStem: 27 129<162 239.5 162 258.5>
LayerCount: 2
Fore
SplineSet
468 423 m 1
 476 452 489 464 514 464 c 0
 544 464 557 454 557 426 c 0
 557 422 556 416 555 410 c 2
 535 301 l 2
 529 267 510 251 478 251 c 0
 447 251 441 270 428 300 c 0
 411 339 387 360 327 360 c 0
 223 360 156 287 156 192 c 0
 156 132 198 89 267 89 c 0
 368 89 425 153 459 153 c 0
 484 153 503 134 503 105 c 0
 503 50 391 -11 254 -11 c 0
 109 -11 27 62 27 178 c 0
 27 339 150 463 330 463 c 0
 387 463 433 450 468 423 c 1
EndSplineSet
EndChar
StartChar: d
Encoding: 100 100 68
Width: 602
Flags: W
HStem: -11 106<229.5 242.5> 0 109<377.5 484 384 484> 364 99<258 307.5 211.5 322> 531 108<373.5 561 412 443>
VStem: 35 130<167 246 167 268>
LayerCount: 2
Fore
SplineSet
257 95 m 0xb8
 328 95 387 165 387 257 c 0
 387 323 351 364 293 364 c 0
 223 364 165 295 165 197 c 0
 165 137 202 95 257 95 c 0xb8
443 531 m 1
 390 531 l 2
 357 531 340 545 340 575 c 0
 340 615 365 639 412 639 c 2
 561 639 l 2
 575 639 582 633 582 623 c 0
 582 621 581 619 581 617 c 2
 471 109 l 1
 484 109 l 2
 507 109 526 92 526 64 c 0
 526 23 501 0 454 0 c 2
 384 0 l 2x50
 371 0 363 7 363 20 c 0
 363 22 364 24 364 26 c 2
 373 66 l 1
 328 14 274 -11 211 -11 c 0
 104 -11 35 63 35 192 c 0
 35 344 142 463 281 463 c 0
 334 463 378 444 414 405 c 1
 443 531 l 1
EndSplineSet
EndChar
StartChar: e
Encoding: 101 101 69
Width: 602
Flags: MW
HStem: -12 100<237 321.5 237 328.5> 197 75<162 412 169 412 169 446> 366 97<276.5 343.5>
VStem: 34 128<156 189.5 189.5 197 156 261.5> 413 124<285.5 310>
LayerCount: 2
Fore
SplineSet
169 272 m 1
 412 272 l 1
 412 280 413 285 413 286 c 0
 413 334 375 366 312 366 c 0
 241 366 188 332 169 272 c 1
162 197 m 1
 162 194 162 191 162 188 c 0
 162 124 201 88 273 88 c 0
 370 88 432 153 466 153 c 0
 491 153 510 134 510 105 c 0
 510 50 397 -12 260 -12 c 0
 120 -12 34 65 34 183 c 0
 34 340 154 463 319 463 c 0
 455 463 537 376 537 258 c 0
 537 202 505 197 446 197 c 2
 162 197 l 1
EndSplineSet
EndChar
StartChar: f
Encoding: 102 102 70
Width: 602
Flags: MW
HStem: 0 109<96.5 188 139 188 139 383> 328 109<166.5 258 209 234 209 452 209 351> 543 96<442 487.5>
VStem: 67 548<31 601>
LayerCount: 2
Fore
SplineSet
374 436 m 1
 466 436 l 2
 507 436 526 426 526 391 c 0
 526 350 501 328 452 328 c 2
 351 328 l 1
 305 108 l 1
 406 108 l 2
 441 108 457 93 457 63 c 0
 457 22 432 0 383 0 c 2
 108 0 l 2
 85 0 67 17 67 45 c 0
 67 86 92 109 139 109 c 2
 188 109 l 1
 234 328 l 1
 178 328 l 2
 155 328 137 345 137 373 c 0
 137 414 162 437 209 437 c 2
 258 437 l 1
 278 580 344 639 484 639 c 0
 572 639 615 622 615 580 c 0
 615 553 594 534 561 534 c 0
 533 534 503 543 472 543 c 0
 412 543 389 515 374 436 c 1
EndSplineSet
EndChar
StartChar: g
Encoding: 103 103 71
Width: 602
Flags: W
HStem: -195 106<180 225> 8 100<232.5 241.5> 344 107<525 549 549 549.5> 364 99<261.5 315 214.5 326>
VStem: 39 130<177.5 252.5 177.5 275>
LayerCount: 2
Fore
SplineSet
260 108 m 0xd8
 332 108 391 176 391 263 c 0
 391 326 355 364 297 364 c 0
 226 364 169 299 169 206 c 0
 169 149 205 108 260 108 c 0xd8
549 451 m 2x20
 584 451 600 437 600 407 c 0
 600 366 574 344 525 344 c 1x20
 467 59 l 2
 452 -14 439 -76 396 -121 c 0
 344 -177 275 -195 175 -195 c 0
 81 -195 35 -175 35 -131 c 0
 35 -98 58 -77 100 -77 c 0
 124 -77 158 -89 202 -89 c 0
 290 -89 331 -46 353 57 c 1
 308 23 268 8 215 8 c 0
 108 8 39 80 39 203 c 0
 39 347 144 463 285 463 c 0xd8
 345 463 392 440 430 391 c 1
 437 421 l 2
 442 444 447 451 472 451 c 2
 549 451 l 2x20
EndSplineSet
EndChar
StartChar: h
Encoding: 104 104 72
Width: 602
Flags: MW
HStem: 0 108<31 73 68 73 68 168> 360 103<314.5 425.5> 530 109<138.5 278 150 278>
VStem: 387 125<299.5 379.5>
LayerCount: 2
Fore
SplineSet
190 108 m 1
 224 108 240 93 240 63 c 0
 240 23 215 0 168 0 c 2
 47 0 l 2
 15 0 -1 14 -1 44 c 0
 -1 83 24 108 68 108 c 0
 70 108 71 108 73 108 c 2
 163 530 l 1
 150 530 l 2
 127 530 108 547 108 575 c 0
 108 616 133 639 180 639 c 2
 278 639 l 2
 291 639 299 632 299 619 c 0
 299 617 298 615 298 613 c 2
 253 406 l 1
 292 444 341 463 388 463 c 0
 463 463 512 419 512 340 c 0
 512 321 510 302 506 282 c 2
 469 108 l 1
 503 108 520 93 520 63 c 0
 520 22 495 0 446 0 c 2
 330 0 l 2
 302 0 286 15 286 44 c 0
 286 82 307 104 349 108 c 1
 385 277 l 2
 387 286 387 295 387 304 c 0
 387 342 373 360 337 360 c 0
 292 360 236 319 222 255 c 2
 190 108 l 1
EndSplineSet
EndChar
StartChar: i
Encoding: 105 105 73
Width: 602
Flags: W
HStem: 0 108<79 214 122 214 334 408> 343 108<191.5 381 233 263> 519 153<364 372>
VStem: 48 434<42.5 65> 300 133<533.5 650.5>
LayerCount: 2
Fore
SplineSet
353 519 m 0x28
 312 519 300 522 300 545 c 0
 300 569 308 609 323 641 c 0
 334 666 345 672 383 672 c 0
 424 672 433 668 433 633 c 0
 433 610 426 578 413 549 c 0
 401 522 391 519 353 519 c 0x28
431 108 m 2xd0
 466 108 482 93 482 63 c 0
 482 22 457 0 408 0 c 2
 95 0 l 2
 63 0 48 14 48 44 c 0
 48 86 73 108 122 108 c 2
 214 108 l 1
 263 343 l 1
 203 343 l 2
 180 343 161 360 161 388 c 0
 161 429 186 451 233 451 c 2
 381 451 l 2
 394 451 403 443 403 431 c 0
 403 429 402 427 402 425 c 2
 334 108 l 1
 431 108 l 2xd0
EndSplineSet
EndChar
StartChar: j
Encoding: 106 106 74
Width: 602
Flags: W
HStem: -195 108<120.5 169.5 120.5 197> 343 108<143.5 441 185 322> 519 153<401 410>
VStem: -19 481 338 132<533.5 650.5>
LayerCount: 2
Fore
SplineSet
322 343 m 1xd0
 155 343 l 2
 132 343 113 360 113 388 c 0
 113 429 138 451 185 451 c 2
 441 451 l 2
 454 451 462 444 462 431 c 0
 462 429 461 427 461 425 c 2
 381 51 l 2
 345 -117 288 -195 106 -195 c 0
 24 -195 -19 -172 -19 -132 c 0
 -19 -99 4 -77 44 -77 c 0
 73 -77 105 -87 136 -87 c 0
 203 -87 240 -47 258 37 c 2
 322 343 l 1xd0
391 519 m 0x28
 350 519 338 522 338 545 c 0
 338 569 346 609 361 641 c 0
 372 666 382 672 420 672 c 0
 461 672 470 668 470 633 c 0
 470 610 464 578 451 549 c 0
 439 522 429 519 391 519 c 0x28
EndSplineSet
EndChar
StartChar: k
Encoding: 107 107 75
Width: 602
Flags: MW
HStem: 0 108<38 81 76 81 76 145> 356 95 530 109<145.5 282 157 282>
VStem: 7 550<29 423>
LayerCount: 2
Fore
SplineSet
54 0 m 2
 22 0 7 14 7 44 c 0
 7 83 32 108 76 108 c 0
 78 108 79 108 81 108 c 2
 170 530 l 1
 157 530 l 2
 134 530 115 547 115 575 c 0
 115 616 140 639 187 639 c 2
 282 639 l 2
 295 639 304 631 304 619 c 0
 304 617 303 615 303 613 c 2
 227 265 l 1
 346 360 l 1
 332 370 327 379 327 394 c 0
 327 429 348 451 385 451 c 2
 506 451 l 2
 508 451 513 451 519 451 c 0
 540 451 557 436 557 410 c 0
 557 374 540 364 512 356 c 0
 448 339 433 318 416 305 c 2
 371 270 l 1
 460 108 l 1
 476 108 l 2
 511 108 527 93 527 63 c 0
 527 22 502 0 453 0 c 2
 319 0 l 2
 295 0 282 13 282 37 c 0
 282 68 301 89 332 90 c 1
 277 194 l 1
 200 132 l 1
 178 33 l 2
 173 9 170 0 145 0 c 2
 54 0 l 2
EndSplineSet
EndChar
StartChar: l
Encoding: 108 108 76
Width: 602
Flags: MW
HStem: 0 108<69 203 112 203 324 398> 530 109<220.5 411 263 293>
VStem: 38 434<42.5 65>
LayerCount: 2
Fore
SplineSet
421 108 m 2
 456 108 472 93 472 63 c 0
 472 22 447 0 398 0 c 2
 85 0 l 2
 53 0 38 14 38 44 c 0
 38 86 63 108 112 108 c 2
 203 108 l 1
 293 530 l 1
 232 530 l 2
 209 530 191 547 191 575 c 0
 191 616 216 639 263 639 c 2
 411 639 l 2
 424 639 432 632 432 619 c 0
 432 617 431 615 431 613 c 2
 324 108 l 1
 421 108 l 2
EndSplineSet
EndChar
StartChar: m
Encoding: 109 109 77
Width: 602
Flags: W
HStem: 0 108<-22 20 15 20 15 99> 343 108<43.5 164 55 164> 361 102<217.5 304.5>
VStem: 260 99 456 116<322 399>
LayerCount: 2
Fore
SplineSet
70 343 m 1xc0
 55 343 l 2
 32 343 14 360 14 388 c 0
 14 429 39 451 86 451 c 2
 164 451 l 2xc0
 176 451 184 445 184 435 c 0
 184 433 183 431 183 429 c 2
 179 410 l 1
 216 445 250 463 287 463 c 0
 322 463 347 444 359 407 c 1
 401 444 440 463 479 463 c 0
 535 463 572 429 572 369 c 0
 572 345 566 316 558 279 c 2
 520 108 l 1
 550 106 564 91 564 63 c 0
 564 23 539 0 492 0 c 2
 421 0 l 2
 403 0 395 7 395 22 c 0
 395 26 396 31 397 36 c 2
 451 291 l 2
 454 305 456 317 456 327 c 0
 456 348 444 361 426 361 c 0
 401 361 372 327 361 279 c 2
 323 108 l 1
 353 106 367 91 367 63 c 0
 367 23 342 0 295 0 c 2
 224 0 l 2
 206 0 199 7 199 21 c 0
 199 26 200 31 201 36 c 2
 255 291 l 2
 258 305 260 317 260 327 c 0
 260 348 248 361 230 361 c 0xb8
 205 361 176 327 165 279 c 2
 126 108 l 1
 156 106 171 91 171 63 c 0
 171 23 146 0 99 0 c 2
 -6 0 l 2
 -38 0 -54 14 -54 44 c 0
 -54 83 -29 108 15 108 c 0
 17 108 18 108 20 108 c 2
 70 343 l 1xc0
EndSplineSet
EndChar
StartChar: n
Encoding: 110 110 78
Width: 602
Flags: W
HStem: 0 108<31 73 68 73 68 168> 343 108<96.5 226 108 226> 360 103<314.5 425.5>
VStem: 387 125<299.5 379.5>
LayerCount: 2
Fore
SplineSet
190 108 m 1xb0
 224 108 240 93 240 63 c 0
 240 23 215 0 168 0 c 2
 47 0 l 2
 15 0 -1 14 -1 44 c 0
 -1 83 24 108 68 108 c 0
 70 108 71 108 73 108 c 2
 121 343 l 1
 108 343 l 2
 85 343 67 360 67 388 c 0
 67 429 92 451 139 451 c 2
 226 451 l 2xc0
 239 451 247 444 247 431 c 0
 247 429 246 427 246 425 c 2
 241 396 l 1
 288 441 338 463 388 463 c 0
 463 463 512 419 512 340 c 0
 512 321 510 302 506 282 c 2
 469 108 l 1
 503 108 520 93 520 63 c 0
 520 22 495 0 446 0 c 2
 330 0 l 2
 302 0 286 15 286 44 c 0
 286 82 307 104 349 108 c 1
 385 277 l 2
 387 286 387 295 387 304 c 0
 387 342 373 360 337 360 c 0
 292 360 236 319 222 255 c 2
 190 108 l 1xb0
EndSplineSet
EndChar
StartChar: o
Encoding: 111 111 79
Width: 602
Flags: MW
HStem: -12 99<242.5 313 242.5 341> 364 100<274.5 342.5>
VStem: 39 132<163.5 244.5 163.5 264.5> 413 132<209 289.5>
LayerCount: 2
Fore
SplineSet
39 189 m 0
 39 340 162 464 324 464 c 0
 459 464 545 384 545 263 c 0
 545 112 423 -12 259 -12 c 0
 125 -12 39 67 39 189 c 0
313 364 m 0
 236 364 171 292 171 197 c 0
 171 130 211 87 274 87 c 0
 352 87 413 159 413 259 c 0
 413 320 372 364 313 364 c 0
EndSplineSet
EndChar
StartChar: p
Encoding: 112 112 80
Width: 602
Flags: W
HStem: -194 107<-47 21 -4 21 140 171> 3 99<275.5 326.5 262 371.5> 343 108<88.5 211 100 211> 357 106<345.5 355.5>
VStem: 420 129<214 288>
LayerCount: 2
Fore
SplineSet
328 357 m 0xd8
 257 357 197 290 197 203 c 0
 197 141 233 102 291 102 c 0
 362 102 420 168 420 260 c 0
 420 316 383 357 328 357 c 0xd8
140 -87 m 1
 193 -87 l 2
 226 -87 243 -101 243 -131 c 0
 243 -171 218 -194 171 -194 c 2
 -31 -194 l 2
 -63 -194 -78 -180 -78 -150 c 0
 -78 -108 -53 -87 -4 -87 c 2
 21 -87 l 1
 113 343 l 1
 100 343 l 2
 77 343 59 360 59 388 c 0
 59 429 84 451 131 451 c 2
 211 451 l 2xa0
 224 451 231 444 231 430 c 0
 231 429 231 427 231 425 c 2
 226 392 l 1
 270 439 318 463 373 463 c 0
 475 463 549 390 549 268 c 0
 549 115 441 3 302 3 c 0
 249 3 207 18 171 53 c 1
 140 -87 l 1
EndSplineSet
EndChar
StartChar: q
Encoding: 113 113 81
Width: 602
Flags: W
HStem: -194 107<236 323 278 323 439 451> -1 105<230.5 240> 344 107<530 553 553 554.5> 365 98<258.5 313 211.5 323.5>
VStem: 34 132<174 250.5 174 269.5>
LayerCount: 2
Fore
SplineSet
258 104 m 0xd8
 329 104 388 172 388 261 c 0
 388 325 353 365 294 365 c 0
 223 365 166 298 166 203 c 0
 166 145 203 104 258 104 c 0xd8
553 451 m 2x20
 588 451 604 437 604 407 c 0
 604 366 579 344 530 344 c 1x20
 439 -87 l 1
 473 -87 l 2
 506 -87 523 -101 523 -131 c 0
 523 -171 498 -194 451 -194 c 2
 252 -194 l 2
 220 -194 205 -180 205 -150 c 0
 205 -108 229 -87 278 -87 c 2
 323 -87 l 1
 352 54 l 1
 314 17 269 -1 211 -1 c 0
 103 -1 34 71 34 194 c 0
 34 345 140 463 283 463 c 0xd8
 343 463 389 440 427 391 c 1
 434 421 l 2
 439 444 444 451 469 451 c 2
 553 451 l 2x20
EndSplineSet
EndChar
StartChar: r
Encoding: 114 114 82
Width: 602
Flags: W
HStem: 0 108<67 110 105 110 227 314> 343 108<133.5 263 145 263> 350 114<395 514>
VStem: 36 535<29 414>
LayerCount: 2
Fore
SplineSet
337 108 m 2xb0
 372 108 388 93 388 63 c 0
 388 22 363 0 314 0 c 2
 83 0 l 2
 51 0 36 14 36 44 c 0
 36 83 61 108 105 108 c 0
 107 108 108 108 110 108 c 2
 158 343 l 1
 145 343 l 2
 122 343 103 360 103 388 c 0
 103 429 128 451 175 451 c 2
 263 451 l 2xd0
 276 451 284 444 284 431 c 0
 284 429 283 427 283 425 c 2
 268 354 l 1
 350 428 427 464 487 464 c 0
 541 464 571 436 571 392 c 0
 571 346 542 318 499 318 c 0
 452 318 429 350 405 350 c 0
 385 350 329 322 260 256 c 1
 227 108 l 1
 337 108 l 2xb0
EndSplineSet
EndChar
StartChar: s
Encoding: 115 115 83
Width: 602
Flags: MW
HStem: -12 82<256 301 245.5 347.5> 386 79<292.5 327.5 243.5 336.5>
VStem: 110 131<323.5 353.5 323.5 362.5> 357 136<109 143.5>
LayerCount: 2
Fore
SplineSet
132 18 m 1
 123 -5 107 -17 87 -17 c 0
 62 -17 45 -4 45 21 c 0
 45 25 46 30 47 35 c 2
 65 126 l 2
 71 155 87 169 115 169 c 0
 149 169 146 153 158 126 c 0
 175 88 214 70 277 70 c 0
 325 70 357 94 357 124 c 0
 357 163 317 172 258 188 c 0
 156 216 110 248 110 320 c 0
 110 405 182 465 305 465 c 0
 350 465 397 458 448 444 c 1
 456 463 471 472 487 472 c 0
 512 472 527 459 527 435 c 0
 527 430 526 425 525 419 c 2
 509 345 l 2
 505 324 491 311 469 311 c 0
 435 311 426 336 413 349 c 0
 391 372 357 386 316 386 c 0
 269 386 241 366 241 341 c 0
 241 306 282 302 338 287 c 0
 442 258 493 227 493 144 c 0
 493 54 413 -12 282 -12 c 0
 230 -12 182 -2 132 18 c 1
EndSplineSet
EndChar
StartChar: t
Encoding: 116 116 84
Width: 602
Flags: MW
HStem: -7 103<283.5 333.5> 314 108<277 444 301 421> 580 20<253.5 295.5>
VStem: 67 441<74.5 379.5>
LayerCount: 2
Fore
SplineSet
159 314 m 1
 108 314 l 2
 85 314 67 331 67 359 c 0
 67 400 92 423 139 423 c 2
 183 423 l 1
 207 538 l 2
 216 580 227 600 280 600 c 0
 311 600 327 584 327 556 c 0
 327 551 326 544 324 533 c 2
 301 422 l 1
 444 422 l 2
 479 422 495 408 495 378 c 0
 495 337 470 314 421 314 c 2
 277 314 l 1
 254 191 l 2
 250 171 248 156 248 143 c 0
 248 111 264 96 303 96 c 0
 371 96 425 144 464 144 c 0
 490 144 508 125 508 100 c 0
 508 49 404 -7 263 -7 c 0
 170 -7 123 29 123 102 c 0
 123 127 128 159 136 201 c 2
 159 314 l 1
EndSplineSet
EndChar
StartChar: u
Encoding: 117 117 85
Width: 602
Flags: W
HStem: -12 103<151.5 262.5> 0 109<344.5 469 351 469> 344 107<92 226>
VStem: 65 125<71.5 151>
LayerCount: 2
Fore
SplineSet
387 344 m 1xb0
 353 344 338 358 338 388 c 0
 338 428 363 451 410 451 c 2
 502 451 l 2
 515 451 523 443 523 431 c 0
 523 429 522 427 522 425 c 2
 456 109 l 1
 469 109 l 2
 492 109 511 91 511 63 c 0
 511 22 486 0 439 0 c 2
 351 0 l 2x60
 338 0 330 7 330 20 c 0
 330 22 331 24 331 26 c 2
 337 56 l 1
 290 11 239 -12 189 -12 c 0
 114 -12 65 32 65 111 c 0
 65 130 68 149 72 169 c 2
 109 344 l 1
 75 344 58 358 58 388 c 0
 58 429 83 451 132 451 c 2
 226 451 l 2
 239 451 247 444 247 431 c 0
 247 429 246 427 246 425 c 2
 192 174 l 2
 190 164 190 155 190 147 c 0
 190 109 204 91 240 91 c 0
 285 91 342 133 356 197 c 2
 387 344 l 1xb0
EndSplineSet
EndChar
StartChar: v
Encoding: 118 118 86
Width: 602
Flags: MW
HStem: -12 20 344 107<99 238 221 221 510 510>
VStem: 55 519<388 407.5>
LayerCount: 2
Fore
SplineSet
99 344 m 1
 67 349 55 359 55 388 c 0
 55 427 83 451 119 451 c 2
 238 451 l 2
 273 451 289 437 289 407 c 0
 289 368 266 346 221 344 c 1
 263 137 l 1
 394 344 l 1
 362 349 350 359 350 388 c 0
 350 427 377 451 413 451 c 2
 523 451 l 2
 558 451 574 437 574 407 c 0
 574 369 552 347 510 344 c 1
 304 36 l 2
 274 -9 261 -12 223 -12 c 0
 181 -12 177 0 169 37 c 2
 99 344 l 1
EndSplineSet
EndChar
StartChar: w
Encoding: 119 119 87
Width: 602
Flags: MW
HStem: -12 20 344 107<50 180 163 163 570 570>
VStem: 6 628<388 407.5>
LayerCount: 2
Fore
SplineSet
50 344 m 1
 17 349 6 359 6 388 c 0
 6 427 33 451 69 451 c 2
 180 451 l 2
 215 451 231 437 231 407 c 0
 231 368 208 346 163 344 c 1
 153 94 l 1
 241 289 l 2
 257 324 271 338 307 338 c 0
 346 338 354 326 357 287 c 2
 371 97 l 1
 456 344 l 1
 424 349 412 359 412 388 c 0
 412 427 439 451 475 451 c 2
 583 451 l 2
 618 451 634 437 634 407 c 0
 634 369 612 347 570 344 c 1
 452 50 l 2
 435 7 415 -12 365 -12 c 0
 319 -12 302 3 299 46 c 2
 287 243 l 1
 192 33 l 2
 179 3 152 -12 112 -12 c 0
 57 -12 48 7 48 52 c 2
 50 344 l 1
EndSplineSet
EndChar
StartChar: x
Encoding: 120 120 88
Width: 602
Flags: MW
HStem: 0 108<60.5 91 91 91 91 151> 344 107<142 262 486 486>
VStem: 27 523<29 422>
LayerCount: 2
Fore
SplineSet
451 108 m 1
 483 103 495 93 495 64 c 0
 495 23 469 0 423 0 c 2
 331 0 l 2
 296 0 281 14 281 46 c 0
 281 79 293 97 326 100 c 1
 279 163 l 1
 208 100 l 1
 221 92 225 83 225 69 c 0
 225 23 201 0 151 0 c 2
 78 0 l 2
 43 0 27 14 27 44 c 0
 27 82 49 105 91 108 c 1
 228 230 l 1
 142 344 l 1
 110 349 98 359 98 388 c 0
 98 429 124 451 170 451 c 2
 262 451 l 2
 297 451 312 438 312 406 c 0
 312 372 298 355 266 352 c 1
 308 296 l 1
 369 352 l 1
 356 360 352 368 352 382 c 0
 352 428 377 451 427 451 c 2
 500 451 l 2
 535 451 550 437 550 407 c 0
 550 369 528 347 486 344 c 1
 358 231 l 1
 451 108 l 1
EndSplineSet
EndChar
StartChar: y
Encoding: 121 121 89
Width: 602
Flags: MW
HStem: -194 107<25 110 78 110 78 224> 344 107<99 238 221 221 510 510>
VStem: -6 580<-165 422>
LayerCount: 2
Fore
SplineSet
99 344 m 1
 67 349 55 359 55 388 c 0
 55 427 83 451 119 451 c 2
 238 451 l 2
 273 451 289 437 289 407 c 0
 289 368 266 346 221 344 c 1
 263 137 l 1
 394 344 l 1
 362 349 350 359 350 388 c 0
 350 427 377 451 413 451 c 2
 523 451 l 2
 558 451 574 437 574 407 c 0
 574 369 552 347 510 344 c 1
 224 -87 l 1
 247 -87 l 2
 282 -87 298 -101 298 -131 c 0
 298 -172 273 -194 224 -194 c 2
 41 -194 l 2
 9 -194 -6 -180 -6 -150 c 0
 -6 -101 23 -87 78 -87 c 2
 110 -87 l 1
 176 10 l 1
 99 344 l 1
EndSplineSet
EndChar
StartChar: z
Encoding: 122 122 90
Width: 602
Flags: MW
HStem: 0 90<219 365 219 407> 361 90<215 355 215 215>
VStem: 49 473<32.5 419.5>
LayerCount: 2
Fore
SplineSet
100 0 m 2
 65 0 49 16 49 49 c 0
 49 64 57 82 73 97 c 2
 355 361 l 1
 215 361 l 1
 205 313 l 2
 199 284 180 267 156 267 c 0
 125 267 110 283 110 306 c 0
 110 311 111 316 112 321 c 2
 133 415 l 2
 139 443 152 451 182 451 c 2
 470 451 l 2
 505 451 522 436 522 403 c 0
 522 388 513 369 497 354 c 2
 219 90 l 1
 365 90 l 1
 379 147 l 2
 387 178 404 193 428 193 c 0
 458 193 474 178 474 154 c 0
 474 149 473 144 472 139 c 2
 452 38 l 2
 446 11 434 0 407 0 c 2
 100 0 l 2
EndSplineSet
EndChar
StartChar: braceleft
Encoding: 123 123 91
Width: 602
Flags: MW
HStem: -184 20 561 20<360 438>
VStem: 261 106<-23 -12 -12 36 -39.5 44 -39.5 76.5 353 361 361 409>
LayerCount: 2
Fore
SplineSet
261 44 m 2
 261 109 253 137 197 145 c 0
 159 150 143 166 143 198 c 0
 143 230 159 246 197 251 c 0
 253 259 261 288 261 353 c 2
 261 419 l 2
 261 526 299 581 421 581 c 0
 455 581 473 565 473 538 c 0
 473 504 446 501 408 494 c 0
 371 487 367 463 367 409 c 2
 367 361 l 2
 367 260 349 212 266 198 c 1
 349 184 367 137 367 36 c 2
 367 -12 l 2
 367 -67 370 -86 406 -96 c 0
 436 -104 473 -102 473 -141 c 0
 473 -168 455 -184 421 -184 c 0
 299 -184 261 -130 261 -23 c 2
 261 44 l 2
EndSplineSet
EndChar
StartChar: bar
Encoding: 124 124 92
Width: 602
Flags: MW
HStem: -261 20 768 20<283 318.5>
VStem: 243 115<-208 735>
LayerCount: 2
Fore
SplineSet
358 -208 m 2
 358 -233 337 -261 301 -261 c 0
 266 -261 243 -235 243 -208 c 2
 243 735 l 2
 243 760 265 788 301 788 c 0
 336 788 358 762 358 735 c 2
 358 -208 l 2
EndSplineSet
EndChar
StartChar: braceright
Encoding: 125 125 93
Width: 602
Flags: MW
HStem: -184 20 561 20<159 237>
VStem: 230 107<-12 36 36 44 -76.5 86.5 361 409 409 419>
LayerCount: 2
Fore
SplineSet
337 353 m 2
 337 288 344 259 400 251 c 0
 438 246 454 230 454 198 c 0
 454 166 438 150 400 145 c 0
 344 137 337 109 337 44 c 2
 337 -23 l 2
 337 -130 298 -184 176 -184 c 0
 142 -184 124 -168 124 -141 c 0
 124 -107 151 -104 189 -97 c 0
 226 -90 230 -66 230 -12 c 2
 230 36 l 2
 230 137 248 184 331 198 c 1
 248 212 230 260 230 361 c 2
 230 409 l 2
 230 464 227 483 191 493 c 0
 161 501 124 499 124 538 c 0
 124 565 142 581 176 581 c 0
 298 581 337 526 337 419 c 2
 337 353 l 2
EndSplineSet
EndChar
StartChar: exclamdown
Encoding: 161 161 95
Width: 602
Flags: W
HStem: -14 20 398 20<301 332> 456 139<320.5 367 320.5 367.5>
VStem: 185 174 266 155<505 545.5 505 545.5>
LayerCount: 2
Fore
SplineSet
358 366 m 2xd0
 313 63 l 2
 305 11 281 -14 236 -14 c 0
 203 -14 185 5 185 33 c 0
 185 37 186 49 191 67 c 2
 268 368 l 2
 277 402 285 418 317 418 c 0
 347 418 359 406 359 381 c 0
 359 376 359 371 358 366 c 2xd0
421 525 m 0x28
 421 485 391 456 344 456 c 0
 296 456 266 484 266 525 c 0
 266 566 297 595 344 595 c 0
 390 595 421 566 421 525 c 0x28
EndSplineSet
EndChar
StartChar: cent
Encoding: 162 162 96
Width: 602
Flags: MW
HStem: -32 20 100 92<291 291> 423 91 626 20<379 406.5>
VStem: 82 115<252 320 252 330.5>
LayerCount: 2
Fore
SplineSet
465 478 m 1
 473 503 484 514 505 514 c 0
 531 514 543 505 543 481 c 0
 543 479 542 474 541 467 c 2
 524 372 l 2
 519 343 503 329 475 329 c 0
 448 329 442 346 431 371 c 0
 415 406 391 423 340 423 c 0
 254 423 197 362 197 278 c 0
 197 226 231 192 292 192 c 0
 380 192 425 243 459 243 c 0
 480 243 497 226 497 203 c 0
 497 155 423 106 291 100 c 1
 265 2 l 2
 256 -31 247 -32 215 -32 c 0
 192 -32 180 -30 180 -15 c 0
 180 -14 181 -7 184 4 c 2
 211 106 l 1
 127 129 82 184 82 265 c 0
 82 396 176 499 319 513 c 1
 344 611 l 2
 353 644 363 646 395 646 c 0
 418 646 430 643 430 628 c 0
 430 627 429 621 426 610 c 2
 399 508 l 1
 426 501 447 492 465 478 c 1
EndSplineSet
EndChar
StartChar: sterling
Encoding: 163 163 97
Width: 602
Flags: W
HStem: -15 110<377 411 377 419> 19 90<186 315> 255 86<132.5 199 150 194 313 449> 540 92<368.5 425>
VStem: 78 480
LayerCount: 2
Fore
SplineSet
194 255 m 1x78
 140 255 l 2
 125 255 118 260 118 271 c 0
 118 273 118 277 119 280 c 2
 127 320 l 2
 130 334 137 341 150 341 c 2
 199 341 l 1
 197 359 196 377 196 393 c 0
 196 548 271 632 405 632 c 0
 498 632 558 602 558 557 c 0
 558 555 558 551 557 545 c 2
 551 499 l 2
 547 467 530 451 500 451 c 0
 475 451 469 461 464 478 c 0
 452 516 447 540 403 540 c 0
 334 540 323 479 313 341 c 1
 463 341 l 2
 475 341 482 335 482 324 c 0
 482 322 481 320 481 318 c 2
 472 273 l 2
 470 263 461 255 449 255 c 2
 305 255 l 1
 298 182 285 135 241 100 c 1
 263 105 282 109 298 109 c 0x78
 332 109 362 95 392 95 c 0
 430 95 458 114 480 114 c 0
 497 114 512 95 512 65 c 0
 512 23 457 -15 381 -15 c 0x80
 316 -15 262 19 207 19 c 0x78
 165 19 138 -15 118 -15 c 0x80
 95 -15 78 13 78 44 c 0
 78 79 115 80 144 109 c 0
 177 143 190 189 194 255 c 1x78
EndSplineSet
EndChar
StartChar: currency
Encoding: 168 164 102
Width: 602
Flags: MW
HStem: 247 73<281 322> 544 73<281.5 320.5 281.5 331.5>
VStem: 117 73<413 450.5> 412 72<413 451 413 462.5>
LayerCount: 2
Fore
SplineSet
109 189 m 1
 59 240 l 1
 148 329 l 1
 127 360 117 394 117 432 c 0
 117 469 127 505 148 536 c 1
 59 625 l 1
 109 675 l 1
 197 585 l 1
 228 607 262 617 301 617 c 0
 340 617 374 607 404 585 c 1
 493 675 l 1
 543 625 l 1
 453 536 l 1
 474 505 484 470 484 432 c 0
 484 394 474 360 453 329 c 1
 543 240 l 1
 493 189 l 1
 404 280 l 1
 376 260 343 247 301 247 c 0
 261 247 228 258 197 280 c 1
 109 189 l 1
190 432 m 0
 190 370 239 320 301 320 c 0
 363 320 412 371 412 432 c 0
 412 493 362 544 301 544 c 0
 240 544 190 493 190 432 c 0
EndSplineSet
EndChar
StartChar: yen
Encoding: 165 165 99
Width: 602
Flags: MW
HStem: 0 98<95.5 198 122 198 321 367> 254 69<67 201 79 201 79 225 397 514> 387 70<88 161 100 161 100 182 495 535> 515 101<119.5 280 131 280 263 263 532 532>
VStem: 42 549<277 588>
LayerCount: 2
Fore
SplineSet
198 98 m 1
 225 254 l 1
 79 254 l 2
 55 254 42 266 42 288 c 0
 42 310 55 323 79 323 c 2
 201 323 l 1
 182 387 l 1
 100 387 l 2
 76 387 63 400 63 422 c 0
 63 444 76 457 100 457 c 2
 161 457 l 1
 144 515 l 1
 131 515 l 2
 108 515 89 532 89 558 c 0
 89 593 116 616 162 616 c 2
 280 616 l 2
 307 616 321 601 321 574 c 0
 321 538 301 518 263 515 c 1
 309 337 l 1
 420 515 l 1
 393 516 378 530 378 557 c 0
 378 593 401 616 438 616 c 2
 544 616 l 2
 575 616 591 602 591 574 c 0
 591 541 571 520 532 515 c 1
 495 457 l 1
 535 457 l 2
 559 457 572 444 572 422 c 0
 572 400 559 387 535 387 c 2
 444 387 l 1
 397 323 l 1
 514 323 l 2
 538 323 550 310 550 288 c 0
 550 266 538 254 514 254 c 2
 348 254 l 1
 321 98 l 1
 396 98 l 2
 420 98 438 82 438 56 c 0
 438 22 412 0 367 0 c 2
 111 0 l 2
 80 0 63 15 63 43 c 0
 63 73 91 98 122 98 c 2
 198 98 l 1
EndSplineSet
EndChar
StartChar: section
Encoding: 167 167 101
Width: 602
Flags: MW
HStem: -103 84<59 232 137 232 232 257.5 137 258> 495 84<343.5 369 369 464>
VStem: 79 96<323 339.5> 186 104 311 104 426 96<135.5 153>
LayerCount: 2
Fore
SplineSet
400 101 m 1
 417 112 426 126 426 141 c 0
 426 165 405 186 369 215 c 2
 258 307 l 2
 244 318 222 331 201 375 c 1
 184 364 175 350 175 335 c 0
 175 311 195 290 231 261 c 2
 343 169 l 2
 357 158 379 145 400 101 c 1
137 -19 m 1
 232 -19 l 2
 283 -19 311 -8 311 30 c 0
 311 50 300 59 280 76 c 2
 157 178 l 2
 108 219 79 250 79 309 c 0
 79 370 114 412 186 434 c 1
 191 522 258 579 343 579 c 2
 529 579 l 2
 555 579 566 574 566 557 c 0
 566 553 565 548 564 542 c 2
 550 475 l 2
 541 430 529 411 494 411 c 0
 466 411 453 422 453 440 c 0
 453 442 453 452 457 467 c 2
 464 495 l 1
 369 495 l 2
 318 495 290 484 290 446 c 0
 290 426 301 417 321 400 c 2
 444 298 l 2
 493 257 522 225 522 166 c 0
 522 105 487 64 415 42 c 1
 410 -46 343 -103 258 -103 c 2
 72 -103 l 2
 46 -103 35 -98 35 -81 c 0
 35 -77 36 -72 37 -66 c 2
 51 1 l 2
 60 46 71 65 106 65 c 0
 134 65 148 54 148 36 c 0
 148 34 148 24 144 9 c 2
 137 -19 l 1
EndSplineSet
EndChar
StartChar: dieresis
Encoding: 200 168 130
Width: 602
Flags: MW
HStem: 520 124<195 228.5 195 229.5 437 470.5>
VStem: 149 123<564.5 598> 391 124<564.5 598>
LayerCount: 2
Fore
SplineSet
149 582 m 0
 149 614 178 644 212 644 c 0
 245 644 272 615 272 582 c 0
 272 545 247 520 212 520 c 0
 177 520 149 547 149 582 c 0
391 582 m 0
 391 614 420 644 454 644 c 0
 487 644 515 615 515 582 c 0
 515 545 489 520 454 520 c 0
 419 520 391 547 391 582 c 0
EndSplineSet
EndChar
StartChar: copyright
Encoding: 313 169 206
Width: 602
Flags: MW
HStem: 33 48<267 333.5 267 340.5> 159 61<279.5 332 279.5 340.5> 444 61<278.5 312.5 254 325.5> 583 48<268.5 333>
VStem: 1 51<297.5 364.5 297.5 371.5> 141 79<295.5 368.5 295.5 382> 549 51<299.5 364.5>
LayerCount: 2
Fore
SplineSet
1 332 m 0
 1 411 32 484 89 542 c 0
 145 599 221 631 301 631 c 0
 378 631 456 599 512 544 c 0
 567 489 600 410 600 332 c 0
 600 254 568 178 511 120 c 0
 455 64 381 33 300 33 c 0
 220 33 148 63 90 120 c 0
 33 176 1 251 1 332 c 0
52 332 m 0
 52 263 78 203 126 155 c 0
 175 107 234 81 300 81 c 0
 367 81 428 107 475 155 c 0
 523 204 549 267 549 332 c 0
 549 397 521 464 475 510 c 0
 429 556 365 583 301 583 c 0
 236 583 171 556 125 509 c 0
 78 461 52 397 52 332 c 0
378 487 m 1
 385 497 393 501 404 501 c 0
 420 501 429 490 429 469 c 2
 429 401 l 2
 429 377 423 369 401 369 c 0
 383 369 377 377 372 395 c 0
 362 429 345 444 306 444 c 0
 251 444 220 405 220 332 c 0
 220 259 252 220 307 220 c 0
 357 220 389 259 414 259 c 0
 428 259 439 245 439 227 c 0
 439 198 379 159 302 159 c 0
 207 159 141 230 141 332 c 0
 141 432 208 505 300 505 c 0
 325 505 351 499 378 487 c 1
EndSplineSet
EndChar
StartChar: ordfeminine
Encoding: 227 170 138
Width: 602
Flags: W
HStem: 261 75<170.5 256.5> 269 87<369.5 436.5 382 436.5> 438 61<259.5 298.5> 570 71<299.5 341>
VStem: 93 100<363.5 394 363.5 405.5> 375 96<535.5 539.5>
LayerCount: 2
Fore
SplineSet
435 356 m 1x7c
 438 356 441 355 444 355 c 0
 462 355 476 342 476 320 c 0
 476 287 455 269 416 269 c 2
 382 269 l 2x7c
 357 269 347 277 345 303 c 1
 293 273 242 261 207 261 c 0xa8
 134 261 93 297 93 366 c 0
 93 445 166 499 288 499 c 0
 313 499 341 496 371 490 c 1
 374 503 375 516 375 528 c 0
 375 551 357 570 325 570 c 0
 274 570 231 532 193 532 c 0
 171 532 159 543 159 563 c 0
 159 610 226 641 340 641 c 0
 426 641 471 606 471 541 c 0
 471 530 469 517 466 502 c 2
 435 356 l 1x7c
345 369 m 1xa8
 358 430 l 1
 329 435 307 438 290 438 c 0
 229 438 193 412 193 376 c 0
 193 351 211 336 243 336 c 0
 270 336 306 346 345 369 c 1xa8
EndSplineSet
EndChar
StartChar: guillemotleft
Encoding: 171 171 105
Width: 602
Flags: MW
HStem: 36 20 388 20<250 266 422 438>
VStem: 126 170<231.5 381> 298 170<231.5 381>
LayerCount: 2
Fore
SplineSet
388 225 m 1
 435 87 l 2
 437 82 437 78 437 74 c 0
 437 52 420 36 398 36 c 0
 383 36 368 45 364 56 c 2
 303 213 l 2
 300 222 298 229 298 234 c 0
 298 241 302 248 308 258 c 2
 400 394 l 2
 405 401 416 408 428 408 c 0
 448 408 468 391 468 371 c 0
 468 364 466 356 462 350 c 2
 388 225 l 1
216 225 m 1
 263 87 l 2
 264 83 265 78 265 74 c 0
 265 53 248 36 225 36 c 0
 210 36 196 45 192 56 c 2
 131 213 l 2
 128 222 126 229 126 234 c 0
 126 241 130 248 136 258 c 2
 227 394 l 2
 232 401 244 408 256 408 c 0
 276 408 296 391 296 371 c 0
 296 364 294 356 290 350 c 2
 216 225 l 1
EndSplineSet
EndChar
StartChar: logicalnot
Encoding: 314 172 207
Width: 602
Flags: MW
HStem: 359 99<71 524 87 465>
VStem: 465 101<210 359 359 359>
LayerCount: 2
Fore
SplineSet
465 359 m 1
 87 359 l 2
 55 359 34 378 34 408 c 0
 34 437 57 458 87 458 c 2
 524 458 l 2
 550 458 566 444 566 424 c 2
 566 210 l 2
 566 178 547 157 514 157 c 0
 481 157 465 174 465 210 c 2
 465 359 l 1
EndSplineSet
EndChar
StartChar: macron
Encoding: 197 175 127
Width: 602
Flags: MW
HStem: 547 66<175.5 494 187 486>
VStem: 166 340<560 600 562.5 600>
LayerCount: 2
Fore
SplineSet
494 613 m 2
 501 613 506 608 506 600 c 0
 506 599 506 598 506 597 c 2
 498 561 l 2
 496 552 493 547 486 547 c 2
 179 547 l 2
 172 547 166 552 166 560 c 0
 166 561 166 562 166 563 c 2
 174 599 l 2
 176 609 180 613 187 613 c 2
 494 613 l 2
EndSplineSet
EndChar
StartChar: degree
Encoding: 321 176 214
Width: 602
Flags: MW
HStem: 350 72<305.5 352.5 305.5 373> 592 72<305.5 352.5>
VStem: 172 73<483 531 483 550.5> 412 74<483.5 530.5>
LayerCount: 2
Fore
SplineSet
172 507 m 0
 172 594 241 664 329 664 c 0
 417 664 486 594 486 507 c 0
 486 419 417 350 329 350 c 0
 241 350 172 419 172 507 c 0
245 507 m 0
 245 459 282 422 329 422 c 0
 376 422 412 460 412 507 c 0
 412 554 376 592 329 592 c 0
 282 592 245 555 245 507 c 0
EndSplineSet
EndChar
StartChar: plusminus
Encoding: 329 177 222
Width: 602
Flags: W
HStem: 30 101<99 487 115 487> 164 20 340 102<99 250 115 250 115 351 351 487> 599 20<285 315.5>
VStem: 61 480<65.5 95.5 376 406 65.5 406.5> 250 101<218 340 442 565>
LayerCount: 2
Fore
SplineSet
351 218 m 2x74
 351 186 331 164 300 164 c 0
 270 164 250 186 250 218 c 2
 250 340 l 1x74
 115 340 l 2
 83 340 61 361 61 391 c 0xa8
 61 422 83 442 115 442 c 2
 250 442 l 1
 250 565 l 2
 250 597 270 619 300 619 c 0
 331 619 351 597 351 565 c 2
 351 442 l 1x74
 487 442 l 2
 519 442 541 421 541 391 c 0xa8
 541 360 519 340 487 340 c 2
 351 340 l 1
 351 218 l 2x74
115 30 m 2xa8
 83 30 61 50 61 80 c 0
 61 111 83 131 115 131 c 2
 487 131 l 2
 519 131 541 111 541 81 c 0
 541 50 519 30 487 30 c 2
 115 30 l 2xa8
EndSplineSet
EndChar
StartChar: threesuperior
Encoding: 332 179 225
Width: 602
Flags: W
HStem: 223 75<251 303 251 332> 559 73<263 301>
VStem: 339 91<513 529.5> 358 94<336 364.5>
LayerCount: 2
Fore
SplineSet
375 445 m 1x60
 426 421 452 387 452 345 c 0
 452 277 386 223 278 223 c 0
 186 223 127 257 127 296 c 0
 127 315 143 329 164 329 c 0
 191 329 222 298 280 298 c 0
 326 298 358 322 358 350 c 0x90
 358 379 336 396 295 400 c 0
 255 404 232 403 232 437 c 0
 232 460 250 473 262 473 c 0
 308 473 339 490 339 517 c 0
 339 542 318 559 284 559 c 0
 242 559 213 524 184 524 c 0
 165 524 153 537 153 551 c 0
 153 589 214 632 293 632 c 0
 375 632 430 585 430 531 c 0
 430 495 413 472 375 445 c 1x60
EndSplineSet
EndChar
StartChar: acute
Encoding: 194 180 124
Width: 602
Flags: MW
HStem: 499 20 652 20<481.5 488>
VStem: 276 260<535 610>
LayerCount: 2
Fore
SplineSet
300 499 m 1
 276 535 l 1
 466 666 l 2
 472 670 479 672 484 672 c 0
 492 672 501 667 507 658 c 2
 532 620 l 2
 535 616 536 612 536 608 c 0
 536 598 530 589 519 585 c 2
 300 499 l 1
EndSplineSet
EndChar
StartChar: mu
Encoding: 324 181 217
Width: 602
Flags: W
HStem: -195 20 -10 95<233 260> 0 99<392 497 410 497> 353 100<104.5 202 116 202>
VStem: 25 516
LayerCount: 2
Fore
SplineSet
477 99 m 1x38
 497 99 l 2
 521 99 539 81 539 54 c 0
 539 20 516 0 476 0 c 2
 410 0 l 2x38
 374 0 358 13 358 45 c 0
 358 48 358 55 359 67 c 1
 325 16 283 -10 237 -10 c 0
 209 -10 187 -1 169 20 c 1
 137 -138 l 2
 129 -177 112 -195 78 -195 c 0
 43 -195 25 -178 25 -146 c 0
 25 -139 26 -132 28 -124 c 2
 133 353 l 1
 116 353 l 2
 93 353 73 371 73 398 c 0
 73 432 97 453 137 453 c 2
 202 453 l 2
 238 453 255 438 255 406 c 0
 255 400 254 393 253 384 c 2
 203 165 l 2
 199 149 198 136 198 128 c 0
 198 100 216 85 250 85 c 0xd8
 325 85 370 137 394 240 c 2
 429 394 l 2
 437 431 448 453 490 453 c 0
 525 453 541 436 541 403 c 0
 541 397 540 389 538 380 c 2
 477 99 l 1x38
EndSplineSet
EndChar
StartChar: periodcentered
Encoding: 180 183 113
Width: 602
Flags: MW
HStem: 210 199<273.5 328.5 273.5 328.5>
VStem: 202 198<282.5 337.5>
LayerCount: 2
Fore
SplineSet
202 310 m 0
 202 365 246 409 301 409 c 0
 356 409 400 365 400 310 c 0
 400 254 356 210 301 210 c 0
 245 210 202 255 202 310 c 0
EndSplineSet
EndChar
StartChar: cedilla
Encoding: 203 184 132
Width: 602
Flags: MW
HStem: -231 47<193.5 228 193.5 264.5> -107 44<218 292.5> -20 20<222 264 264 264>
VStem: 266 87<-154 -129>
LayerCount: 2
Fore
SplineSet
264 0 m 1
 250 -64 l 1
 255 -64 260 -63 265 -63 c 0
 320 -63 353 -93 353 -135 c 0
 353 -188 302 -231 227 -231 c 0
 148 -231 96 -210 96 -184 c 0
 96 -171 107 -161 119 -161 c 0
 141 -161 174 -184 213 -184 c 0
 243 -184 266 -167 266 -141 c 0
 266 -117 252 -107 221 -107 c 0
 215 -107 208 -107 200 -108 c 1
 222 0 l 1
 264 0 l 1
EndSplineSet
EndChar
StartChar: onesuperior
Encoding: 328 185 221
Width: 602
Flags: MW
HStem: 241 75<200 257 237 257 347 366 366 388.5> 544 80<227 315>
VStem: 257 90<316 546 546 546>
LayerCount: 2
Fore
SplineSet
347 316 m 1
 366 316 l 2
 411 316 428 311 428 279 c 0
 428 254 416 241 392 241 c 2
 212 241 l 2
 188 241 176 254 176 279 c 0
 176 311 192 316 237 316 c 2
 257 316 l 1
 257 546 l 1
 233 544 l 2
 231 544 229 544 227 544 c 0
 203 544 188 559 188 579 c 0
 188 604 202 617 229 619 c 2
 308 624 l 2
 310 624 313 624 315 624 c 0
 342 624 347 612 347 585 c 2
 347 316 l 1
EndSplineSet
EndChar
StartChar: ordmasculine
Encoding: 235 186 142
Width: 602
Flags: MW
HStem: 259 79<252.5 308.5 252.5 330> 560 79<278.5 333>
VStem: 90 106<399.5 464 399.5 481> 389 105<435 499.5>
LayerCount: 2
Fore
SplineSet
90 420 m 0
 90 542 190 639 318 639 c 0
 426 639 494 575 494 478 c 0
 494 356 395 259 265 259 c 0
 159 259 90 323 90 420 c 0
309 560 m 0
 248 560 196 501 196 427 c 0
 196 372 227 338 278 338 c 0
 339 338 389 395 389 475 c 0
 389 524 357 560 309 560 c 0
EndSplineSet
EndChar
StartChar: guillemotright
Encoding: 187 187 119
Width: 602
Flags: MW
HStem: 38 20 390 20
VStem: 126 170<65 215.5> 298 170<65 215.5>
LayerCount: 2
Fore
SplineSet
206 222 m 1
 159 360 l 2
 157 365 157 369 157 373 c 0
 157 394 174 410 196 410 c 0
 211 410 226 401 230 390 c 2
 291 234 l 2
 294 225 296 218 296 213 c 0
 296 206 292 198 286 188 c 2
 194 52 l 2
 189 45 178 38 166 38 c 0
 146 38 126 55 126 75 c 0
 126 82 127 90 131 96 c 2
 206 222 l 1
378 222 m 1
 331 360 l 2
 330 364 329 369 329 373 c 0
 329 394 346 410 369 410 c 0
 384 410 398 401 402 390 c 2
 463 234 l 2
 466 225 468 218 468 213 c 0
 468 206 464 198 458 188 c 2
 367 52 l 2
 362 45 350 38 338 38 c 0
 318 38 298 55 298 75 c 0
 298 82 300 90 304 96 c 2
 378 222 l 1
EndSplineSet
EndChar
StartChar: onequarter
Encoding: 327 188 220
Width: 602
Flags: MW
HStem: -93 20 -26 66<268.5 437 321 430 509 546> 242 20<422 429> 328 69<46 105 81 105 186 205 205 226.5> 606 74<73 153>
VStem: 105 81<397 608 608 608> 430 79<-65 -26 -76 -26>
LayerCount: 2
Fore
SplineSet
437 40 m 1
 437 189 l 1
 321 40 l 1
 437 40 l 1
186 397 m 1
 205 397 l 2
 248 397 264 393 264 363 c 0
 264 340 252 328 230 328 c 2
 57 328 l 2
 35 328 23 340 23 363 c 0
 23 393 38 397 81 397 c 2
 105 397 l 1
 105 608 l 1
 77 606 l 2
 76 606 74 606 73 606 c 0
 49 606 34 621 34 639 c 0
 34 662 47 674 73 675 c 2
 149 680 l 2
 150 680 151 680 153 680 c 0
 177 680 186 670 186 644 c 2
 186 397 l 1
492 419 m 2
 498 422 504 423 509 423 c 0
 524 423 535 411 535 397 c 0
 535 387 528 376 517 370 c 2
 98 158 l 2
 93 155 87 154 82 154 c 0
 67 154 56 167 56 181 c 0
 56 191 63 201 74 207 c 2
 492 419 l 2
509 40 m 1
 546 40 l 2
 568 40 570 32 570 9 c 0
 570 -13 568 -26 546 -26 c 2
 509 -26 l 1
 509 -65 l 2
 509 -87 495 -93 470 -93 c 0
 443 -93 430 -88 430 -65 c 2
 430 -26 l 1
 280 -26 l 2
 257 -26 249 -13 249 14 c 0
 249 37 251 57 267 76 c 2
 405 246 l 2
 413 256 418 262 426 262 c 0
 432 262 438 262 444 261 c 2
 493 253 l 2
 504 251 509 241 509 222 c 2
 509 40 l 1
EndSplineSet
EndChar
StartChar: onehalf
Encoding: 326 189 219
Width: 602
Flags: MW
HStem: -86 69<349.5 532 415 532 532 534> 195 72<422.5 451> 328 69<46 105 81 105 186 205 205 226.5> 606 74<73 153>
VStem: 105 81<397 608 608 608> 480 87<140 164>
LayerCount: 2
Fore
SplineSet
415 -17 m 1
 532 -17 l 2
 556 -17 571 -31 571 -51 c 0
 571 -71 555 -86 534 -86 c 2
 361 -86 l 2
 338 -86 326 -70 326 -44 c 0
 326 -9 356 12 398 48 c 0
 449 92 480 117 480 151 c 0
 480 177 464 195 438 195 c 0
 407 195 378 166 353 166 c 0
 335 166 325 178 325 199 c 0
 325 231 386 267 452 267 c 0
 520 267 567 223 567 162 c 0
 567 118 538 74 481 32 c 2
 415 -17 l 1
186 397 m 1
 205 397 l 2
 248 397 264 393 264 363 c 0
 264 340 252 328 230 328 c 2
 57 328 l 2
 35 328 23 340 23 363 c 0
 23 393 38 397 81 397 c 2
 105 397 l 1
 105 608 l 1
 77 606 l 2
 76 606 74 606 73 606 c 0
 49 606 34 621 34 639 c 0
 34 662 47 674 73 675 c 2
 149 680 l 2
 150 680 151 680 153 680 c 0
 177 680 186 670 186 644 c 2
 186 397 l 1
492 419 m 2
 498 422 504 423 509 423 c 0
 524 423 535 411 535 397 c 0
 535 387 528 376 517 370 c 2
 98 158 l 2
 93 155 87 154 82 154 c 0
 67 154 56 167 56 181 c 0
 56 191 63 201 74 207 c 2
 492 419 l 2
EndSplineSet
EndChar
StartChar: questiondown
Encoding: 191 191 122
Width: 602
Flags: MW
HStem: -13 93<273.5 309 273.5 323.5> 397 20<364 401> 456 139<383.5 430 383.5 430.5>
VStem: 98 133<120.5 155.5 120.5 189> 329 155<505 545.5 505 545.5>
LayerCount: 2
Fore
SplineSet
484 525 m 0
 484 485 454 456 407 456 c 0
 359 456 329 484 329 525 c 0
 329 566 360 595 407 595 c 0
 453 595 484 566 484 525 c 0
309 337 m 1
 317 369 l 2
 325 401 343 417 385 417 c 0
 417 417 435 403 435 378 c 0
 435 375 435 370 434 366 c 2
 428 339 l 2
 420 302 396 274 356 256 c 2
 299 231 l 2
 258 213 231 175 231 136 c 0
 231 105 255 80 292 80 c 0
 326 80 355 94 366 115 c 0
 376 134 378 161 419 161 c 0
 447 161 461 152 461 132 c 0
 461 129 461 125 460 121 c 2
 447 59 l 2
 437 11 374 -13 273 -13 c 0
 162 -13 98 43 98 141 c 0
 98 237 168 302 309 337 c 1
EndSplineSet
EndChar
StartChar: Aring
Encoding: 260 197 153
Width: 602
Flags: W
HStem: 0 108<-12 34 16 34 16 133 368 392> 162 102<231 372 231 385 179 372> 471 108<176 405 218 235> 611 70<314.5 349 314.5 368.5> 806 69<314.5 349>
VStem: -44 605<43.5 63> 200 70<726.5 761 726.5 779.5> 394 70<726.5 761>
LayerCount: 2
Fore
SplineSet
200 743 m 0x1b
 200 816 258 875 332 875 c 0
 405 875 464 816 464 743 c 0
 464 669 405 611 332 611 c 0
 259 611 200 669 200 743 c 0x1b
270 744 m 0
 270 709 297 681 332 681 c 0
 366 681 394 709 394 744 c 0
 394 778 366 806 332 806 c 0
 297 806 270 778 270 744 c 0
235 471 m 1xe4
 188 471 l 2
 164 471 146 487 146 515 c 0
 146 556 171 579 218 579 c 2
 405 579 l 2
 429 579 441 570 444 547 c 2
 509 108 l 1
 520 108 l 2
 544 108 561 92 561 64 c 0
 561 23 536 0 489 0 c 2
 347 0 l 2
 315 0 299 14 299 44 c 0
 299 84 325 108 368 108 c 2
 392 108 l 1
 385 162 l 1
 179 162 l 1
 150 108 l 1
 155 108 l 2
 188 108 205 93 205 63 c 0
 205 23 180 0 133 0 c 2
 4 0 l 2
 -28 0 -44 14 -44 44 c 0
 -44 82 -17 108 16 108 c 2
 34 108 l 1
 235 471 l 1xe4
231 264 m 1
 372 264 l 1
 342 478 l 1
 231 264 l 1
EndSplineSet
EndChar
StartChar: AE
Encoding: 225 198 137
Width: 602
Flags: MW
HStem: 0 108<-47 3 -19 3 -19 21 213 240 334 472> 179 74<171 254 134 269> 276 49<379 403 369 413> 482 97<163.5 616 175 616 283 283 283 318 412 412 412 552>
VStem: -78 730<29 561>
LayerCount: 2
Fore
SplineSet
201 0 m 2
 169 0 154 14 154 44 c 0
 154 82 180 108 213 108 c 2
 240 108 l 1
 254 179 l 1
 134 179 l 1
 60 26 l 2
 51 8 40 0 21 0 c 2
 -31 0 l 2
 -63 0 -78 14 -78 44 c 0
 -78 82 -52 108 -19 108 c 2
 3 108 l 1
 190 482 l 1
 175 482 l 2
 152 482 134 499 134 524 c 0
 134 559 158 579 203 579 c 2
 616 579 l 2
 640 579 652 568 652 554 c 0
 652 551 652 549 651 547 c 2
 625 419 l 2
 618 384 607 363 575 363 c 0
 551 363 537 376 537 399 c 0
 537 409 538 418 540 428 c 2
 552 482 l 1
 412 482 l 1
 379 325 l 1
 413 325 l 1
 417 364 430 380 460 380 c 0
 484 380 496 367 496 342 c 0
 496 338 495 332 494 324 c 2
 484 272 l 2
 478 238 470 220 438 220 c 0
 412 220 400 230 400 253 c 0
 400 258 401 266 403 276 c 1
 369 276 l 1
 334 108 l 1
 472 108 l 1
 480 150 l 2
 489 198 506 221 537 221 c 0
 562 221 572 212 572 184 c 0
 572 177 571 168 569 159 c 2
 545 39 l 2
 539 11 527 0 500 0 c 2
 201 0 l 2
171 253 m 1
 269 253 l 1
 318 482 l 1
 283 482 l 1
 171 253 l 1
EndSplineSet
EndChar
StartChar: Eth
Encoding: 317 208 210
Width: 602
Flags: MW
HStem: 0 109<42 217> 253 73<52 113 80 97 237 304> 471 108<268 299 268 268>
VStem: 439 138<309.5 395.5>
LayerCount: 2
Fore
SplineSet
42 0 m 2
 10 0 -5 14 -5 44 c 0
 -5 82 21 108 54 108 c 2
 69 108 l 1
 97 253 l 1
 60 253 l 2
 44 253 32 264 32 283 c 0
 32 311 48 326 80 326 c 2
 113 326 l 1
 143 470 l 1
 130 470 l 2
 107 470 88 487 88 515 c 0
 88 556 113 579 160 579 c 2
 310 579 l 2
 489 579 577 513 577 368 c 0
 577 251 541 152 481 89 c 0
 400 4 308 0 190 0 c 2
 42 0 l 2
299 471 m 2
 268 471 l 1
 237 326 l 1
 325 326 l 2
 341 326 353 315 353 296 c 0
 353 268 336 253 304 253 c 2
 222 253 l 1
 193 109 l 1
 217 109 l 2
 277 109 321 116 353 138 c 0
 404 173 439 253 439 355 c 0
 439 436 393 471 299 471 c 2
EndSplineSet
EndChar
StartChar: multiply
Encoding: 325 215 218
Width: 602
Flags: MW
HStem: 114 411<133.5 149.5 130.5 153>
VStem: 93 411<467.5 485 465 487.5>
LayerCount: 2
Fore
SplineSet
302 387 m 1
 417 502 l 2
 428 513 441 519 453 519 c 0
 482 519 504 498 504 472 c 0
 504 458 498 443 487 432 c 2
 372 317 l 1
 491 198 l 2
 502 187 508 172 508 160 c 0
 508 132 486 110 459 110 c 0
 444 110 430 116 420 126 c 2
 300 246 l 1
 186 131 l 2
 175 120 160 114 146 114 c 0
 121 114 98 137 98 163 c 0
 98 176 104 189 116 201 c 2
 230 316 l 1
 110 436 l 2
 99 447 93 460 93 475 c 0
 93 500 118 525 143 525 c 0
 156 525 170 519 182 507 c 2
 302 387 l 1
EndSplineSet
EndChar
StartChar: Oslash
Encoding: 233 216 140
Width: 602
Flags: MW
HStem: -15 112<254 308> 485 110<300.5 348>
VStem: 16 143<233 273> 446 138<304.5 353.5>
LayerCount: 2
Fore
SplineSet
46 95 m 1
 26 138 16 181 16 227 c 0
 16 319 52 417 113 489 c 0
 171 557 253 595 348 595 c 0
 409 595 457 581 499 549 c 1
 553 600 l 2
 562 609 571 614 579 614 c 0
 596 614 618 592 618 575 c 0
 618 567 614 558 605 549 c 2
 550 493 l 1
 573 454 584 406 584 347 c 0
 584 262 558 181 508 113 c 0
 446 28 361 -15 255 -15 c 0
 188 -15 138 0 94 37 c 1
 33 -21 l 2
 24 -30 15 -34 7 -34 c 0
 -10 -34 -33 -12 -33 5 c 0
 -33 13 -28 22 -19 31 c 2
 46 95 l 1
161 208 m 1
 408 458 l 1
 385 476 361 485 335 485 c 0
 243 485 159 367 159 235 c 0
 159 231 160 222 161 208 c 1
444 386 m 1
 190 133 l 1
 213 109 238 97 270 97 c 0
 362 97 446 218 446 347 c 0
 446 360 445 373 444 386 c 1
EndSplineSet
EndChar
StartChar: Thorn
Encoding: 318 222 211
Width: 602
Flags: MW
HStem: 0 92<37 79 65 79 204 208> 137 90<231 283 283 286 214 283> 352 90<277 332 258 350> 487 92<136.5 331 153 331 286 286 286 319>
VStem: 416 127<271 315>
LayerCount: 2
Fore
SplineSet
277 442 m 1
 350 442 l 2
 478 442 543 398 543 309 c 0
 543 198 457 137 286 137 c 2
 214 137 l 1
 204 92 l 1
 231 92 l 2
 264 92 280 79 280 53 c 0
 280 19 255 0 208 0 c 2
 53 0 l 2
 21 0 5 12 5 38 c 0
 5 69 31 92 65 92 c 2
 79 92 l 1
 161 487 l 1
 153 487 l 2
 120 487 103 500 103 526 c 0
 103 560 128 579 175 579 c 2
 331 579 l 2
 363 579 378 568 378 541 c 0
 378 510 353 487 319 487 c 2
 286 487 l 1
 277 442 l 1
231 227 m 1
 283 227 l 2
 373 227 416 245 416 297 c 0
 416 333 388 352 332 352 c 2
 258 352 l 1
 231 227 l 1
EndSplineSet
EndChar
StartChar: germandbls
Encoding: 251 223 148
Width: 602
Flags: W
HStem: -14 105 0 108<16 59 54 59 54 127> 541 98<319 360.5>
VStem: 399 124<476.5 500.5> 403 123<197 264>
LayerCount: 2
Fore
SplineSet
32 0 m 2x70
 0 0 -15 14 -15 44 c 0
 -15 83 10 108 54 108 c 0
 56 108 57 108 59 108 c 2
 131 447 l 2
 159 578 231 639 359 639 c 0
 463 639 523 586 523 509 c 0x70
 523 444 481 395 404 373 c 1
 483 361 526 309 526 231 c 0
 526 84 441 -14 292 -14 c 0
 239 -14 213 2 213 34 c 0
 213 91 261 85 314 91 c 0
 368 97 403 159 403 235 c 0x88
 403 293 384 316 326 328 c 0
 293 335 277 341 277 362 c 0
 277 398 308 400 341 409 c 0
 379 419 399 448 399 484 c 0
 399 517 376 541 345 541 c 0
 293 541 263 502 246 422 c 2
 162 27 l 2
 157 4 150 0 127 0 c 2
 32 0 l 2x70
EndSplineSet
EndChar
StartChar: aring
Encoding: 288 229 181
Width: 602
Flags: W
HStem: -11 95<133 241> 0 108<381 480 397 480> 211 77<244 291.5> 377 88<293 345> 495 70<341.5 376 341.5 395.5> 690 69<341.5 376>
VStem: 36 124<119 157.5 119 169.5> 227 70<610.5 645 610.5 663.5> 389 119<333 337.5> 421 70<610.5 645>
LayerCount: 2
Fore
SplineSet
463 108 m 1x7280
 497 108 514 93 514 63 c 0
 514 22 489 0 440 0 c 2
 397 0 l 2x7280
 365 0 353 8 350 42 c 1
 285 5 222 -11 178 -11 c 0xaf40
 88 -11 36 36 36 116 c 0
 36 223 128 288 275 288 c 0
 311 288 347 284 383 277 c 1
 387 294 389 308 389 320 c 0
 389 355 365 377 325 377 c 0
 261 377 208 329 160 329 c 0
 132 329 118 342 118 367 c 0
 118 426 201 465 344 465 c 0
 452 465 508 421 508 340 c 0
 508 326 506 310 502 291 c 2
 463 108 l 1x7280
351 125 m 1xaf40
 367 201 l 1
 330 207 301 211 282 211 c 0
 206 211 160 178 160 137 c 0
 160 101 181 84 224 84 c 0
 258 84 303 97 351 125 c 1xaf40
227 627 m 0
 227 700 285 759 359 759 c 0
 432 759 491 700 491 627 c 0
 491 553 432 495 359 495 c 0
 286 495 227 553 227 627 c 0
297 628 m 0
 297 593 324 565 359 565 c 0
 393 565 421 593 421 628 c 0
 421 662 393 690 359 690 c 0
 324 690 297 662 297 628 c 0
EndSplineSet
EndChar
StartChar: ae
Encoding: 241 230 143
Width: 602
Flags: W
HStem: -12 104<386 434 386 434.5> -11 95<119 122> 197 74<162 163 163 254 366 476> 368 94<441 452.5> 370 94<189.5 231.5>
VStem: -27 112<115.5 148.5 115.5 157> 248 97<141 141> 479 108<301.5 326>
LayerCount: 2
Fore
SplineSet
248 141 m 1x6e
 254 197 l 1
 163 197 l 2
 117 197 85 167 85 130 c 0
 85 101 104 84 134 84 c 0
 167 84 205 103 248 141 c 1x6e
366 271 m 1xb3
 476 271 l 1
 478 286 479 297 479 306 c 0
 479 346 464 368 441 368 c 0
 412 368 386 335 366 271 c 1xb3
258 64 m 1
 209 14 147 -11 97 -11 c 0
 20 -11 -27 36 -27 108 c 0
 -27 206 40 271 162 271 c 2
 262 271 l 1
 265 290 267 305 267 319 c 0
 267 353 250 370 213 370 c 0x6e
 166 370 125 333 88 333 c 0
 63 333 52 344 52 368 c 0xb3
 52 420 132 464 224 464 c 0x6e
 278 464 313 445 336 404 c 1
 377 444 416 462 466 462 c 0
 547 462 587 411 587 308 c 0
 587 216 570 197 519 197 c 2
 351 197 l 1
 348 175 345 157 345 143 c 0
 345 113 367 92 405 92 c 0
 463 92 493 144 524 144 c 0
 543 144 556 131 556 111 c 0
 556 62 482 -12 387 -12 c 0
 326 -12 282 14 258 64 c 1
EndSplineSet
EndChar
StartChar: eth
Encoding: 323 240 216
Width: 602
Flags: MW
HStem: -12 99<241.5 311.5 241.5 341> 356 97<274.5 307.5 231.5 341> 617 20<206.5 241.5>
VStem: 39 131<168 245.5 168 260.5> 411 134<202.5 280.5>
LayerCount: 2
Fore
SplineSet
311 356 m 0
 238 356 170 286 170 205 c 0
 170 131 209 87 274 87 c 0
 349 87 411 157 411 248 c 0
 411 313 371 356 311 356 c 0
348 449 m 1
 325 482 305 504 293 515 c 1
 197 478 l 2
 184 473 175 470 168 470 c 0
 153 470 142 482 142 495 c 0
 142 511 153 520 175 528 c 2
 252 556 l 1
 208 596 179 612 179 622 c 0
 179 630 193 637 220 637 c 0
 263 637 293 619 335 588 c 1
 419 622 l 2
 432 627 443 630 450 630 c 0
 463 630 474 618 474 605 c 0
 474 587 462 582 441 573 c 2
 384 549 l 1
 491 447 545 352 545 261 c 0
 545 112 423 -12 259 -12 c 0
 125 -12 39 68 39 188 c 0
 39 333 163 453 300 453 c 0
 315 453 331 451 348 449 c 1
EndSplineSet
EndChar
StartChar: oslash
Encoding: 249 248 146
Width: 602
Flags: MW
HStem: -12 99<261 313 261 340.5> 364 100<274 327>
VStem: 39 132<195 244.5 195 264> 414 131<206.5 256.5>
LayerCount: 2
Fore
SplineSet
69 77 m 1
 48 112 39 147 39 188 c 0
 39 340 162 464 325 464 c 0
 378 464 423 451 466 424 c 1
 533 480 l 2
 541 486 548 489 555 489 c 0
 571 489 592 466 592 451 c 0
 592 443 587 436 578 428 c 2
 516 372 l 1
 536 338 545 303 545 263 c 0
 545 112 428 -12 253 -12 c 0
 203 -12 161 0 119 26 c 1
 30 -50 l 2
 23 -56 15 -59 8 -59 c 0
 -8 -59 -29 -36 -29 -21 c 0
 -29 -14 -24 -6 -15 2 c 2
 69 77 l 1
175 163 m 1
 379 341 l 1
 360 357 340 364 314 364 c 0
 234 364 171 289 171 200 c 0
 171 190 173 177 175 163 c 1
410 287 m 1
 206 110 l 1
 226 95 248 87 274 87 c 0
 352 87 414 162 414 251 c 0
 414 262 412 273 410 287 c 1
EndSplineSet
EndChar
StartChar: thorn
Encoding: 330 254 223
Width: 602
Flags: MW
HStem: -194 107<-47 21 -4 21 140 171> 3 99<278.5 326.5 262 372> 357 106<343 355.5> 530 109<128.5 261 140 261>
VStem: 420 129<214 288>
LayerCount: 2
Fore
SplineSet
328 357 m 0
 257 357 197 290 197 203 c 0
 197 141 233 102 291 102 c 0
 362 102 420 168 420 260 c 0
 420 316 383 357 328 357 c 0
140 -87 m 1
 193 -87 l 2
 226 -87 243 -101 243 -131 c 0
 243 -172 218 -194 171 -194 c 2
 -31 -194 l 2
 -63 -194 -78 -180 -78 -150 c 0
 -78 -108 -53 -87 -4 -87 c 2
 21 -87 l 1
 153 530 l 1
 140 530 l 2
 117 530 98 547 98 575 c 0
 98 616 123 639 170 639 c 2
 261 639 l 2
 274 639 282 632 282 619 c 0
 282 617 281 615 281 613 c 2
 233 391 l 1
 259 435 313 463 373 463 c 0
 475 463 549 390 549 268 c 0
 549 114 437 3 307 3 c 0
 250 3 208 17 171 53 c 1
 140 -87 l 1
EndSplineSet
EndChar
StartChar: dotlessi
Encoding: 245 305 144
Width: 602
Flags: MW
HStem: 0 108<79 214 122 214 334 408> 343 108<191.5 381 233 263>
VStem: 48 434<42.5 65>
LayerCount: 2
Fore
SplineSet
431 108 m 2
 466 108 482 93 482 63 c 0
 482 22 457 0 408 0 c 2
 95 0 l 2
 63 0 48 14 48 44 c 0
 48 86 73 108 122 108 c 2
 214 108 l 1
 263 343 l 1
 203 343 l 2
 180 343 161 360 161 388 c 0
 161 429 186 451 233 451 c 2
 381 451 l 2
 394 451 403 443 403 431 c 0
 403 429 402 427 402 425 c 2
 334 108 l 1
 431 108 l 2
EndSplineSet
EndChar
StartChar: lslash
Encoding: 248 322 145
Width: 602
Flags: MW
HStem: 0 108<69 203 112 203 324 398> 530 109<220.5 411 263 293>
VStem: 38 479<29 445.5>
LayerCount: 2
Fore
SplineSet
390 417 m 1
 461 462 l 2
 471 468 478 474 488 474 c 0
 503 474 517 456 517 435 c 0
 517 422 509 411 492 400 c 2
 369 317 l 1
 324 108 l 1
 410 108 l 2
 452 108 472 99 472 63 c 0
 472 22 447 0 398 0 c 2
 85 0 l 2
 53 0 38 14 38 44 c 0
 38 86 63 108 112 108 c 2
 203 108 l 1
 234 255 l 1
 163 210 l 2
 153 204 145 198 135 198 c 0
 120 198 107 215 107 236 c 0
 107 249 115 261 132 272 c 2
 255 355 l 1
 293 530 l 1
 232 530 l 2
 209 530 191 547 191 575 c 0
 191 616 216 639 263 639 c 2
 411 639 l 2
 424 639 432 632 432 619 c 0
 432 617 431 615 431 613 c 2
 390 417 l 1
EndSplineSet
EndChar
StartChar: OE
Encoding: 234 338 141
Width: 602
Flags: W
HStem: 0 106<147.5 233 233 233 233 500> 0 108<334 472 334 500> 253 95<384 399 365 418> 471 108<410 549 410 410> 476 103<311 616>
VStem: 5 116<184 273.5>
LayerCount: 2
Fore
SplineSet
219 0 m 2x74
 76 0 5 73 5 217 c 0
 5 330 55 443 125 507 c 0
 185 562 255 579 349 579 c 2
 616 579 l 2
 640 579 652 568 652 554 c 0
 652 551 652 549 651 547 c 2
 625 419 l 2
 618 384 607 363 575 363 c 0
 551 363 537 376 537 399 c 0
 537 409 538 418 540 428 c 2
 549 471 l 1
 410 471 l 1
 384 348 l 1
 418 348 l 1
 422 387 435 403 465 403 c 0
 489 403 501 391 501 365 c 0
 501 361 501 355 499 347 c 2
 480 249 l 2
 474 216 467 197 434 197 c 0
 408 197 395 208 395 231 c 0
 395 236 397 243 399 253 c 1
 365 253 l 1
 334 108 l 1
 472 108 l 1
 480 150 l 2
 489 198 506 221 537 221 c 0
 562 221 572 212 572 184 c 0
 572 177 571 168 569 159 c 2
 545 39 l 2
 539 11 527 0 500 0 c 2
 219 0 l 2x74
233 106 m 1x8c
 311 476 l 1
 306 477 301 477 296 477 c 0
 201 477 121 360 121 222 c 0
 121 146 155 105 215 105 c 0
 221 105 227 105 233 106 c 1x8c
EndSplineSet
EndChar
StartChar: oe
Encoding: 250 339 147
Width: 602
Flags: W
HStem: -12 104<386.5 434 386.5 434.5> -8 99<137.5 155.5> 197 74<366 476 366 519 351 476> 363 100<175.5 220.5> 368 94<439 452.5>
VStem: -6 102<146.5 222 146.5 247> 262 83<127.5 307.5> 479 108<301.5 326>
LayerCount: 2
Fore
SplineSet
366 271 m 1xab
 476 271 l 1
 478 286 479 297 479 306 c 0
 479 346 464 368 441 368 c 0
 412 368 386 335 366 271 c 1xab
260 62 m 1
 219 16 177 -8 134 -8 c 0
 50 -8 -6 56 -6 162 c 0
 -6 332 99 463 207 463 c 0x56
 268 463 310 420 328 391 c 1
 366 438 412 462 466 462 c 0
 547 462 587 411 587 308 c 0
 587 216 570 197 519 197 c 2
 351 197 l 1
 347 175 345 157 345 143 c 0
 345 112 368 92 405 92 c 0
 463 92 493 144 524 144 c 0
 543 144 556 131 556 111 c 0
 556 62 482 -12 387 -12 c 0
 327 -12 284 14 260 62 c 1
96 173 m 0x56
 96 120 119 91 156 91 c 0
 209 91 262 183 262 281 c 0
 262 334 239 363 202 363 c 0
 149 363 96 271 96 173 c 0x56
EndSplineSet
EndChar
StartChar: florin
Encoding: 166 402 100
Width: 602
Flags: MW
HStem: -139 107<36 62 62 88 36 106.5> 315 81<173.5 278> 524 107<493 526.5 519 544>
VStem: -33 646<-104.5 596.5>
LayerCount: 2
Fore
SplineSet
252 316 m 1
 181 315 l 2
 166 315 158 323 158 333 c 0
 158 335 159 336 159 338 c 2
 170 375 l 2
 174 388 185 396 201 396 c 2
 278 396 l 1
 302 470 l 2
 340 587 410 631 537 631 c 0
 590 631 613 617 613 576 c 0
 613 540 590 524 544 524 c 0
 541 524 534 524 519 524 c 0
 467 524 439 513 425 471 c 2
 400 397 l 1
 481 396 l 2
 495 396 503 388 503 378 c 0
 503 377 502 375 502 373 c 2
 491 336 l 2
 487 323 476 315 460 315 c 2
 374 316 l 1
 278 22 l 2
 240 -95 170 -139 43 -139 c 0
 -10 -139 -33 -125 -33 -84 c 0
 -33 -48 -10 -32 36 -32 c 0
 39 -32 47 -32 62 -32 c 0
 114 -32 142 -22 156 21 c 2
 252 316 l 1
EndSplineSet
EndChar
StartChar: circumflex
Encoding: 195 710 125
Width: 602
Flags: MW
HStem: 510 20 642 20<352.5 363.5>
VStem: 164 335<527 535>
LayerCount: 2
Fore
SplineSet
356 584 m 1
 207 517 l 2
 195 512 187 510 184 510 c 0
 173 510 164 518 164 528 c 0
 164 542 175 546 189 556 c 2
 330 653 l 2
 338 659 348 662 357 662 c 0
 370 662 381 657 390 648 c 2
 484 555 l 2
 493 546 499 542 499 533 c 0
 499 521 490 512 476 512 c 0
 470 512 462 514 456 518 c 2
 356 584 l 1
EndSplineSet
EndChar
StartChar: caron
Encoding: 207 711 135
Width: 602
Flags: MW
HStem: 510 20 639 20<180 190>
VStem: 165 334<636 645>
LayerCount: 2
Fore
SplineSet
308 587 m 1
 457 654 l 2
 469 659 476 661 479 661 c 0
 490 661 499 653 499 643 c 0
 499 629 489 625 475 615 c 2
 334 518 l 2
 326 512 316 510 307 510 c 0
 294 510 282 514 273 523 c 2
 179 616 l 2
 170 625 165 630 165 639 c 0
 165 651 173 659 187 659 c 0
 193 659 201 657 207 653 c 2
 308 587 l 1
EndSplineSet
EndChar
StartChar: breve
Encoding: 198 728 128
Width: 602
Flags: MW
HStem: 528 72<298.5 358 298.5 385> 638 20<503 517>
VStem: 159 368<620.5 642>
LayerCount: 2
Fore
SplineSet
320 528 m 0
 219 528 159 572 159 633 c 0
 159 651 166 660 178 660 c 0
 193 660 201 642 213 630 c 0
 230 613 270 600 327 600 c 0
 389 600 433 608 458 622 c 0
 485 637 494 658 512 658 c 0
 522 658 527 653 527 641 c 0
 527 600 450 528 320 528 c 0
EndSplineSet
EndChar
StartChar: dotaccent
Encoding: 199 729 129
Width: 602
Flags: MW
HStem: 523 132<314.5 350 314.5 350.5>
VStem: 266 132<571.5 607.5>
LayerCount: 2
Fore
SplineSet
266 590 m 0
 266 625 297 655 332 655 c 0
 368 655 398 626 398 590 c 0
 398 552 369 523 332 523 c 0
 295 523 266 553 266 590 c 0
EndSplineSet
EndChar
StartChar: ring
Encoding: 202 730 131
Width: 602
Flags: MW
HStem: 500 70<345.5 380 345.5 399.5> 695 69<345.5 380>
VStem: 231 70<615.5 650 615.5 668.5> 425 70<615.5 650>
LayerCount: 2
Fore
SplineSet
231 632 m 0
 231 705 289 764 363 764 c 0
 436 764 495 705 495 632 c 0
 495 558 436 500 363 500 c 0
 290 500 231 558 231 632 c 0
301 633 m 0
 301 598 328 570 363 570 c 0
 397 570 425 598 425 633 c 0
 425 667 397 695 363 695 c 0
 328 695 301 667 301 633 c 0
EndSplineSet
EndChar
StartChar: ogonek
Encoding: 206 731 134
Width: 602
Flags: MW
HStem: -225 58<240.5 315.5> -6 20<352 378 378 378>
VStem: 188 84<-140 -127.5>
LayerCount: 2
Fore
SplineSet
378 14 m 1
 306 -38 272 -87 272 -127 c 0
 272 -153 284 -167 306 -167 c 0
 325 -167 347 -154 364 -130 c 1
 387 -148 l 1
 362 -196 313 -225 264 -225 c 0
 217 -225 188 -199 188 -154 c 0
 188 -101 243 -44 352 14 c 1
 378 14 l 1
EndSplineSet
EndChar
StartChar: tilde
Encoding: 196 732 126
Width: 602
Flags: W
HStem: 536 67<412.5 426.5> 567 67<252 267>
VStem: 161 357<543 627.5>
LayerCount: 2
Fore
SplineSet
283 634 m 0x60
 343 634 397 603 428 603 c 0
 463 603 486 638 502 638 c 0
 510 638 518 631 518 624 c 0
 518 590 458 536 395 536 c 0xa0
 336 536 283 567 251 567 c 0
 216 567 193 533 177 533 c 0
 168 533 161 539 161 547 c 0
 161 580 221 634 283 634 c 0x60
EndSplineSet
EndChar
StartChar: hungarumlaut
Encoding: 205 733 133
Width: 602
Flags: MW
HStem: 503 20 644 20<374 380 536 542>
VStem: 199 376<531 615.5>
LayerCount: 2
Fore
SplineSet
218 503 m 1
 199 531 l 1
 359 656 l 2
 366 661 371 664 377 664 c 0
 383 664 390 661 393 655 c 2
 410 624 l 2
 412 621 413 617 413 614 c 0
 413 603 408 599 395 592 c 2
 218 503 l 1
380 503 m 1
 361 531 l 1
 521 656 l 2
 528 661 533 664 539 664 c 0
 545 664 552 661 555 655 c 2
 573 624 l 2
 575 621 575 617 575 614 c 0
 575 603 570 599 557 592 c 2
 380 503 l 1
EndSplineSet
EndChar
StartChar: emdash
Encoding: 208 8212 136
Width: 602
Flags: MW
HStem: 179 93<-15 611 1 602>
VStem: -31 664<195 256>
LayerCount: 2
Fore
SplineSet
-9 179 m 2
 -21 179 -31 189 -31 201 c 0
 -31 203 -30 204 -30 206 c 2
 -20 248 l 2
 -17 264 -10 272 1 272 c 2
 611 272 l 2
 623 272 633 262 633 250 c 0
 633 248 632 247 632 245 c 2
 623 203 l 2
 620 187 614 179 602 179 c 2
 -9 179 l 2
EndSplineSet
EndChar
StartChar: quoteleft
Encoding: 96 8216 64
Width: 602
Flags: MW
HStem: 323 20 577 20<396.5 402>
VStem: 213 232
LayerCount: 2
Fore
SplineSet
437 550 m 2
 341 341 l 2
 334 327 329 323 312 323 c 2
 224 323 l 2
 217 323 213 328 213 334 c 0
 213 336 213 338 215 340 c 2
 379 584 l 2
 385 593 393 597 400 597 c 0
 404 597 407 597 410 595 c 2
 437 581 l 2
 441 579 445 573 445 569 c 0
 445 568 442 561 437 550 c 2
EndSplineSet
EndChar
StartChar: quoteright
Encoding: 39 8217 7
Width: 602
Flags: MW
HStem: 305 20 559 20<319 406 406 409.5>
VStem: 186 231
LayerCount: 2
Fore
SplineSet
193 351 m 2
 290 561 l 2
 296 575 302 579 319 579 c 2
 406 579 l 2
 413 579 417 574 417 568 c 0
 417 566 417 564 415 562 c 2
 252 318 l 2
 246 309 238 305 230 305 c 0
 226 305 223 305 220 307 c 2
 193 321 l 2
 189 323 186 329 186 333 c 0
 186 334 188 340 193 351 c 2
EndSplineSet
EndChar
StartChar: quotesinglbase
Encoding: 184 8218 116
Width: 602
Flags: MW
HStem: -108 20 146 20<294 381 381 384.5>
VStem: 161 231
LayerCount: 2
Fore
SplineSet
168 -62 m 2
 265 148 l 2
 271 162 277 166 294 166 c 2
 381 166 l 2
 388 166 392 161 392 155 c 0
 392 153 392 151 390 149 c 2
 227 -95 l 2
 221 -104 213 -108 205 -108 c 0
 201 -108 198 -108 195 -106 c 2
 168 -92 l 2
 164 -90 161 -84 161 -80 c 0
 161 -79 163 -73 168 -62 c 2
EndSplineSet
EndChar
StartChar: quotedblleft
Encoding: 170 8220 104
Width: 602
Flags: MW
HStem: 323 20 577 20<289.5 295 501.5 507>
VStem: 106 444<331 571>
LayerCount: 2
Fore
SplineSet
330 550 m 2
 234 341 l 2
 227 327 222 323 205 323 c 2
 117 323 l 2
 110 323 106 328 106 334 c 0
 106 336 106 338 108 340 c 2
 272 584 l 2
 278 593 286 597 293 597 c 0
 297 597 300 597 303 595 c 2
 330 581 l 2
 334 579 338 573 338 569 c 0
 338 568 335 561 330 550 c 2
542 550 m 2
 446 341 l 2
 439 327 434 323 417 323 c 2
 329 323 l 2
 322 323 318 328 318 334 c 0
 318 336 318 338 320 340 c 2
 484 584 l 2
 490 593 498 597 505 597 c 0
 509 597 512 597 515 595 c 2
 542 581 l 2
 546 579 550 573 550 569 c 0
 550 568 547 561 542 550 c 2
EndSplineSet
EndChar
StartChar: quotedblright
Encoding: 186 8221 118
Width: 602
Flags: MW
HStem: 305 20 559 20<248 335 335 338.5 460 547 547 550.5>
VStem: 115 443<331 571>
LayerCount: 2
Fore
SplineSet
122 351 m 2
 219 561 l 2
 225 575 231 579 248 579 c 2
 335 579 l 2
 342 579 346 574 346 568 c 0
 346 566 346 564 344 562 c 2
 181 318 l 2
 175 309 167 305 159 305 c 0
 155 305 152 305 149 307 c 2
 122 321 l 2
 118 323 115 329 115 333 c 0
 115 334 117 340 122 351 c 2
334 351 m 2
 431 561 l 2
 437 575 443 579 460 579 c 2
 547 579 l 2
 554 579 558 574 558 568 c 0
 558 566 558 564 556 562 c 2
 393 318 l 2
 387 309 379 305 371 305 c 0
 367 305 364 305 361 307 c 2
 334 321 l 2
 330 323 327 329 327 333 c 0
 327 334 329 340 334 351 c 2
EndSplineSet
EndChar
StartChar: quotedblbase
Encoding: 185 8222 117
Width: 602
Flags: MW
HStem: -108 20 146 20<175 262 262 265.5 387 474 474 477.5>
VStem: 42 443<-82 158>
LayerCount: 2
Fore
SplineSet
261 -62 m 2
 357 148 l 2
 363 162 370 166 387 166 c 2
 474 166 l 2
 481 166 485 161 485 155 c 0
 485 153 485 151 483 149 c 2
 319 -95 l 2
 313 -104 305 -108 298 -108 c 0
 294 -108 291 -108 288 -106 c 2
 261 -92 l 2
 257 -90 254 -84 254 -80 c 0
 254 -79 256 -73 261 -62 c 2
49 -62 m 2
 145 148 l 2
 151 162 158 166 175 166 c 2
 262 166 l 2
 269 166 273 161 273 155 c 0
 273 153 273 151 271 149 c 2
 107 -95 l 2
 101 -104 93 -108 86 -108 c 0
 82 -108 79 -108 76 -106 c 2
 49 -92 l 2
 45 -90 42 -84 42 -80 c 0
 42 -79 44 -73 49 -62 c 2
EndSplineSet
EndChar
StartChar: dagger
Encoding: 178 8224 111
Width: 602
Flags: MW
HStem: -15 20 345 104<172 273 213 250 213 369 391 433> 575 20<337.5 375.5>
VStem: 143 360<388 409.5>
LayerCount: 2
Fore
SplineSet
310 68 m 2
 297 8 280 -15 237 -15 c 0
 204 -15 186 2 186 29 c 0
 186 35 187 46 190 59 c 2
 250 345 l 1
 183 345 l 2
 161 345 143 361 143 389 c 0
 143 430 166 449 213 449 c 2
 273 449 l 1
 286 512 l 2
 299 572 316 595 359 595 c 0
 392 595 411 578 411 551 c 0
 411 545 409 534 406 521 c 2
 391 449 l 1
 463 449 l 2
 488 449 503 435 503 408 c 0
 503 368 478 345 433 345 c 2
 369 345 l 1
 310 68 l 2
EndSplineSet
EndChar
StartChar: daggerdbl
Encoding: 179 8225 112
Width: 602
Flags: MW
HStem: -15 20 144 104<134.5 241 177 219 177 337 360 397> 345 104<183 284 224 262 224 380 402 444> 575 20<348.5 386.5>
VStem: 107 407<171.5 421.5>
LayerCount: 2
Fore
SplineSet
321 68 m 2
 308 8 291 -15 248 -15 c 0
 215 -15 197 2 197 29 c 0
 197 35 198 46 201 59 c 2
 219 144 l 1
 147 144 l 2
 122 144 107 158 107 185 c 0
 107 225 132 248 177 248 c 2
 241 248 l 1
 262 345 l 1
 194 345 l 2
 172 345 154 361 154 389 c 0
 154 430 177 449 224 449 c 2
 284 449 l 1
 297 512 l 2
 310 572 327 595 370 595 c 0
 403 595 422 578 422 551 c 0
 422 545 421 534 418 521 c 2
 402 449 l 1
 474 449 l 2
 499 449 514 435 514 408 c 0
 514 368 489 345 444 345 c 2
 380 345 l 1
 360 248 l 1
 427 248 l 2
 449 248 467 232 467 204 c 0
 467 163 444 144 397 144 c 2
 337 144 l 1
 321 68 l 2
EndSplineSet
EndChar
StartChar: ellipsis
Encoding: 188 8230 120
Width: 602
Flags: MW
HStem: -12 145<42 82 243 283 444 484>
VStem: -11 145<40 80> 191 144<40 80> 391 145<40 80>
LayerCount: 2
Fore
SplineSet
-11 60 m 0
 -11 100 22 133 62 133 c 0
 102 133 134 100 134 60 c 0
 134 20 102 -12 62 -12 c 0
 22 -12 -11 20 -11 60 c 0
191 60 m 0
 191 100 223 133 263 133 c 0
 303 133 335 100 335 60 c 0
 335 20 303 -12 263 -12 c 0
 223 -12 191 20 191 60 c 0
391 60 m 0
 391 100 424 133 464 133 c 0
 504 133 536 100 536 60 c 0
 536 20 504 -12 464 -12 c 0
 424 -12 391 20 391 60 c 0
EndSplineSet
EndChar
StartChar: guilsinglleft
Encoding: 172 8249 106
Width: 602
Flags: MW
HStem: 36 20 388 20<345 361>
VStem: 220 170<231.5 381>
LayerCount: 2
Fore
SplineSet
310 225 m 1
 357 87 l 2
 359 82 359 78 359 74 c 0
 359 52 342 36 320 36 c 0
 305 36 291 45 287 56 c 2
 226 213 l 2
 223 222 220 229 220 234 c 0
 220 241 224 248 230 258 c 2
 322 394 l 2
 327 401 339 408 351 408 c 0
 371 408 390 391 390 371 c 0
 390 364 389 356 385 350 c 2
 310 225 l 1
EndSplineSet
EndChar
StartChar: guilsinglright
Encoding: 173 8250 107
Width: 602
Flags: MW
HStem: 38 20 390 20
VStem: 220 170<65 215.5>
LayerCount: 2
Fore
SplineSet
300 222 m 1
 253 360 l 2
 252 364 251 369 251 373 c 0
 251 394 268 410 291 410 c 0
 306 410 320 401 324 390 c 2
 385 234 l 2
 388 225 390 218 390 213 c 0
 390 206 387 198 381 188 c 2
 289 52 l 2
 284 45 272 38 260 38 c 0
 240 38 220 55 220 75 c 0
 220 82 222 90 226 96 c 2
 300 222 l 1
EndSplineSet
EndChar
StartChar: minus
Encoding: 316 8722 209
Width: 602
Flags: MW
HStem: 257 102<74 512 90 512>
VStem: 36 530<293 323 292.5 323.5>
LayerCount: 2
Fore
SplineSet
90 257 m 2
 58 257 36 278 36 308 c 0
 36 339 58 359 90 359 c 2
 512 359 l 2
 544 359 566 338 566 308 c 0
 566 277 544 257 512 257 c 2
 90 257 l 2
EndSplineSet
EndChar
StartChar: fi
Encoding: 174 64257 108
Width: 602
Flags: W
HStem: 0 108<11 53 48 53 48 163 364 369> 344 107<108 233 108 219> 519 153<525 533> 536 102<299 328.5>
VStem: -21 578<29 437.5> 461 133<533.5 650.5>
LayerCount: 2
Fore
SplineSet
536 451 m 2xd8
 549 451 557 444 557 431 c 0
 557 429 556 427 556 425 c 2
 486 108 l 1
 520 108 536 93 536 63 c 0
 536 23 511 0 464 0 c 2
 343 0 l 2
 311 0 295 14 295 44 c 0
 295 83 320 108 364 108 c 0
 366 108 367 108 369 108 c 2
 417 343 l 1
 404 343 l 2
 381 343 363 360 363 388 c 0
 363 429 388 451 435 451 c 2
 536 451 l 2xd8
125 451 m 1
 147 574 213 638 317 638 c 0
 382 638 416 617 416 580 c 0
 416 554 395 534 364 534 c 0
 348 534 334 536 323 536 c 0
 275 536 259 513 242 451 c 1
 253 451 l 2
 291 451 307 439 307 407 c 0
 307 366 282 344 233 344 c 2
 219 344 l 1
 171 108 l 1
 175 108 179 108 182 108 c 0
 218 108 235 94 235 63 c 0
 235 23 210 0 163 0 c 2
 27 0 l 2
 -5 0 -21 14 -21 44 c 0
 -21 83 4 108 48 108 c 0
 50 108 51 108 53 108 c 2
 101 343 l 1
 88 343 l 2
 65 343 47 360 47 388 c 0
 47 426 73 451 108 451 c 2
 125 451 l 1
514 519 m 0x24
 473 519 461 522 461 545 c 0
 461 569 469 609 484 641 c 0
 495 666 506 672 544 672 c 0
 585 672 594 668 594 633 c 0
 594 610 588 578 575 549 c 0
 563 522 552 519 514 519 c 0x24
EndSplineSet
EndChar
StartChar: fl
Encoding: 175 64258 109
Width: 602
Flags: MW
HStem: 0 108<11 53 48 53 48 148 362 369> 343 108<76.5 125 88 125> 530 109<329 349 349 459>
VStem: -21 619<29 625.5>
LayerCount: 2
Fore
SplineSet
125 451 m 1
 149 579 213 639 329 639 c 2
 577 639 l 2
 590 639 598 632 598 619 c 0
 598 617 597 615 597 613 c 2
 486 108 l 1
 520 108 536 93 536 63 c 0
 536 23 511 0 464 0 c 2
 343 0 l 2
 311 0 295 14 295 44 c 0
 295 82 318 108 362 108 c 0
 364 108 367 108 369 108 c 2
 459 530 l 1
 349 530 l 2
 285 530 261 530 242 451 c 1
 253 451 l 2
 291 451 307 439 307 407 c 0
 307 366 282 344 233 344 c 2
 219 344 l 1
 170 108 l 1
 204 108 220 93 220 63 c 0
 220 23 195 0 148 0 c 2
 27 0 l 2
 -5 0 -21 14 -21 44 c 0
 -21 83 4 108 48 108 c 0
 50 108 51 108 53 108 c 2
 101 343 l 1
 88 343 l 2
 65 343 47 360 47 388 c 0
 47 426 73 451 108 451 c 2
 125 451 l 1
EndSplineSet
EndChar
